  0
SECTION
  2
BLOCKS
  0
ENDSEC
  0
SECTION
  2
ENTITIES
  0
LINE
  8
0
 10
-92.5
 20
-55.5
 11
-92.4319
 21
-56.0176
  0
LINE
  8
0
 10
-92.4319
 20
-56.0176
 11
-92.232
 21
-56.5
  0
LINE
  8
0
 10
-92.232
 20
-56.5
 11
-91.9142
 21
-56.9142
  0
LINE
  8
0
 10
-91.9142
 20
-56.9142
 11
-91.5
 21
-57.2321
  0
LINE
  8
0
 10
-91.5
 20
-57.2321
 11
-91.0176
 21
-57.4319
  0
LINE
  8
0
 10
-91.0176
 20
-57.4319
 11
-90.5
 21
-57.5
  0
LINE
  8
0
 10
-90.5
 20
-57.5
 11
90.5
 21
-57.5
  0
LINE
  8
0
 10
90.5
 20
-57.5
 11
91.0176
 21
-57.4319
  0
LINE
  8
0
 10
91.0176
 20
-57.4319
 11
91.5
 21
-57.2321
  0
LINE
  8
0
 10
91.5
 20
-57.2321
 11
91.9142
 21
-56.9142
  0
LINE
  8
0
 10
91.9142
 20
-56.9142
 11
92.232
 21
-56.5
  0
LINE
  8
0
 10
92.232
 20
-56.5
 11
92.4319
 21
-56.0176
  0
LINE
  8
0
 10
92.4319
 20
-56.0176
 11
92.5
 21
-55.5
  0
LINE
  8
0
 10
92.5
 20
-55.5
 11
92.5
 21
-49.4965
  0
LINE
  8
0
 10
92.5
 20
-49.4965
 11
92.4319
 21
-48.9789
  0
LINE
  8
0
 10
92.4319
 20
-48.9789
 11
92.232
 21
-48.4965
  0
LINE
  8
0
 10
92.232
 20
-48.4965
 11
91.9142
 21
-48.0823
  0
LINE
  8
0
 10
91.9142
 20
-48.0823
 11
91.5
 21
-47.7644
  0
LINE
  8
0
 10
91.5
 20
-47.7644
 11
91.0176
 21
-47.5646
  0
LINE
  8
0
 10
91.0176
 20
-47.5646
 11
90.5
 21
-47.4965
  0
LINE
  8
0
 10
90.5
 20
-47.4965
 11
90
 21
-47.4965
  0
LINE
  8
0
 10
90
 20
-47.4965
 11
90
 21
-42.4965
  0
LINE
  8
0
 10
90
 20
-42.4965
 11
90.5
 21
-42.4965
  0
LINE
  8
0
 10
90.5
 20
-42.4965
 11
91.0176
 21
-42.4283
  0
LINE
  8
0
 10
91.0176
 20
-42.4283
 11
91.5
 21
-42.2285
  0
LINE
  8
0
 10
91.5
 20
-42.2285
 11
91.9142
 21
-41.9107
  0
LINE
  8
0
 10
91.9142
 20
-41.9107
 11
92.232
 21
-41.4965
  0
LINE
  8
0
 10
92.232
 20
-41.4965
 11
92.4319
 21
-41.0141
  0
LINE
  8
0
 10
92.4319
 20
-41.0141
 11
92.5
 21
-40.4965
  0
LINE
  8
0
 10
92.5
 20
-40.4965
 11
92.5
 21
40.496
  0
LINE
  8
0
 10
92.5
 20
40.496
 11
92.4319
 21
41.0136
  0
LINE
  8
0
 10
92.4319
 20
41.0136
 11
92.232
 21
41.496
  0
LINE
  8
0
 10
92.232
 20
41.496
 11
91.9142
 21
41.9102
  0
LINE
  8
0
 10
91.9142
 20
41.9102
 11
91.5
 21
42.2281
  0
LINE
  8
0
 10
91.5
 20
42.2281
 11
91.0176
 21
42.4279
  0
LINE
  8
0
 10
91.0176
 20
42.4279
 11
90.5
 21
42.496
  0
LINE
  8
0
 10
90.5
 20
42.496
 11
90
 21
42.496
  0
LINE
  8
0
 10
90
 20
42.496
 11
90
 21
47.496
  0
LINE
  8
0
 10
90
 20
47.496
 11
90.5
 21
47.496
  0
LINE
  8
0
 10
90.5
 20
47.496
 11
91.0176
 21
47.5642
  0
LINE
  8
0
 10
91.0176
 20
47.5642
 11
91.5
 21
47.764
  0
LINE
  8
0
 10
91.5
 20
47.764
 11
91.9142
 21
48.0818
  0
LINE
  8
0
 10
91.9142
 20
48.0818
 11
92.232
 21
48.496
  0
LINE
  8
0
 10
92.232
 20
48.496
 11
92.4319
 21
48.9784
  0
LINE
  8
0
 10
92.4319
 20
48.9784
 11
92.5
 21
49.496
  0
LINE
  8
0
 10
92.5
 20
49.496
 11
92.5
 21
55.5
  0
LINE
  8
0
 10
92.5
 20
55.5
 11
92.4319
 21
56.0176
  0
LINE
  8
0
 10
92.4319
 20
56.0176
 11
92.232
 21
56.5
  0
LINE
  8
0
 10
92.232
 20
56.5
 11
91.9142
 21
56.9142
  0
LINE
  8
0
 10
91.9142
 20
56.9142
 11
91.5
 21
57.2321
  0
LINE
  8
0
 10
91.5
 20
57.2321
 11
91.0176
 21
57.4319
  0
LINE
  8
0
 10
91.0176
 20
57.4319
 11
90.5
 21
57.5
  0
LINE
  8
0
 10
90.5
 20
57.5
 11
2.5
 21
57.5
  0
LINE
  8
0
 10
2.5
 20
57.5
 11
2.5
 21
1
  0
LINE
  8
0
 10
2.5
 20
1
 11
2.46593
 21
0.74118
  0
LINE
  8
0
 10
2.46593
 20
0.74118
 11
2.36602
 21
0.5
  0
LINE
  8
0
 10
2.36602
 20
0.5
 11
2.20711
 21
0.292892
  0
LINE
  8
0
 10
2.20711
 20
0.292892
 11
2
 21
0.133974
  0
LINE
  8
0
 10
2
 20
0.133974
 11
1.75882
 21
0.0340738
  0
LINE
  8
0
 10
1.75882
 20
0.0340738
 11
1.5
 21
0
  0
LINE
  8
0
 10
1.5
 20
0
 11
-1.5
 21
0
  0
LINE
  8
0
 10
-1.5
 20
0
 11
-1.75882
 21
0.0340738
  0
LINE
  8
0
 10
-1.75882
 20
0.0340738
 11
-2
 21
0.133974
  0
LINE
  8
0
 10
-2
 20
0.133974
 11
-2.20711
 21
0.292892
  0
LINE
  8
0
 10
-2.20711
 20
0.292892
 11
-2.36602
 21
0.5
  0
LINE
  8
0
 10
-2.36602
 20
0.5
 11
-2.46593
 21
0.74118
  0
LINE
  8
0
 10
-2.46593
 20
0.74118
 11
-2.5
 21
1
  0
LINE
  8
0
 10
-2.5
 20
1
 11
-2.5
 21
57.5
  0
LINE
  8
0
 10
-2.5
 20
57.5
 11
-90.5
 21
57.5
  0
LINE
  8
0
 10
-90.5
 20
57.5
 11
-91.0176
 21
57.4319
  0
LINE
  8
0
 10
-91.0176
 20
57.4319
 11
-91.5
 21
57.2321
  0
LINE
  8
0
 10
-91.5
 20
57.2321
 11
-91.9142
 21
56.9142
  0
LINE
  8
0
 10
-91.9142
 20
56.9142
 11
-92.232
 21
56.5
  0
LINE
  8
0
 10
-92.232
 20
56.5
 11
-92.4319
 21
56.0176
  0
LINE
  8
0
 10
-92.4319
 20
56.0176
 11
-92.5
 21
55.5
  0
LINE
  8
0
 10
-92.5
 20
55.5
 11
-92.5
 21
49.496
  0
LINE
  8
0
 10
-92.5
 20
49.496
 11
-92.4319
 21
48.9784
  0
LINE
  8
0
 10
-92.4319
 20
48.9784
 11
-92.232
 21
48.496
  0
LINE
  8
0
 10
-92.232
 20
48.496
 11
-91.9142
 21
48.0818
  0
LINE
  8
0
 10
-91.9142
 20
48.0818
 11
-91.5
 21
47.764
  0
LINE
  8
0
 10
-91.5
 20
47.764
 11
-91.0176
 21
47.5642
  0
LINE
  8
0
 10
-91.0176
 20
47.5642
 11
-90.5
 21
47.496
  0
LINE
  8
0
 10
-90.5
 20
47.496
 11
-90
 21
47.496
  0
LINE
  8
0
 10
-90
 20
47.496
 11
-90
 21
42.496
  0
LINE
  8
0
 10
-90
 20
42.496
 11
-90.5
 21
42.496
  0
LINE
  8
0
 10
-90.5
 20
42.496
 11
-91.0176
 21
42.4279
  0
LINE
  8
0
 10
-91.0176
 20
42.4279
 11
-91.5
 21
42.2281
  0
LINE
  8
0
 10
-91.5
 20
42.2281
 11
-91.9142
 21
41.9102
  0
LINE
  8
0
 10
-91.9142
 20
41.9102
 11
-92.232
 21
41.496
  0
LINE
  8
0
 10
-92.232
 20
41.496
 11
-92.4319
 21
41.0136
  0
LINE
  8
0
 10
-92.4319
 20
41.0136
 11
-92.5
 21
40.496
  0
LINE
  8
0
 10
-92.5
 20
40.496
 11
-92.5
 21
-40.4965
  0
LINE
  8
0
 10
-92.5
 20
-40.4965
 11
-92.4319
 21
-41.0141
  0
LINE
  8
0
 10
-92.4319
 20
-41.0141
 11
-92.232
 21
-41.4965
  0
LINE
  8
0
 10
-92.232
 20
-41.4965
 11
-91.9142
 21
-41.9107
  0
LINE
  8
0
 10
-91.9142
 20
-41.9107
 11
-91.5
 21
-42.2285
  0
LINE
  8
0
 10
-91.5
 20
-42.2285
 11
-91.0176
 21
-42.4283
  0
LINE
  8
0
 10
-91.0176
 20
-42.4283
 11
-90.5
 21
-42.4965
  0
LINE
  8
0
 10
-90.5
 20
-42.4965
 11
-90
 21
-42.4965
  0
LINE
  8
0
 10
-90
 20
-42.4965
 11
-90
 21
-47.4965
  0
LINE
  8
0
 10
-90
 20
-47.4965
 11
-90.5
 21
-47.4965
  0
LINE
  8
0
 10
-90.5
 20
-47.4965
 11
-91.0176
 21
-47.5646
  0
LINE
  8
0
 10
-91.0176
 20
-47.5646
 11
-91.5
 21
-47.7644
  0
LINE
  8
0
 10
-91.5
 20
-47.7644
 11
-91.9142
 21
-48.0823
  0
LINE
  8
0
 10
-91.9142
 20
-48.0823
 11
-92.232
 21
-48.4965
  0
LINE
  8
0
 10
-92.232
 20
-48.4965
 11
-92.4319
 21
-48.9789
  0
LINE
  8
0
 10
-92.4319
 20
-48.9789
 11
-92.5
 21
-49.4965
  0
LINE
  8
0
 10
-92.5
 20
-49.4965
 11
-92.5
 21
-55.5
  0
ENDSEC
  0
SECTION
  2
OBJECTS
  0
DICTIONARY
  0
ENDSEC
  0
EOF
