<?xml version="1.0" encoding="UTF-8" standalone="no"?>
<!-- Created with Inkscape (http://www.inkscape.org/) -->

<svg
   xmlns:dc="http://purl.org/dc/elements/1.1/"
   xmlns:cc="http://creativecommons.org/ns#"
   xmlns:rdf="http://www.w3.org/1999/02/22-rdf-syntax-ns#"
   xmlns:svg="http://www.w3.org/2000/svg"
   xmlns="http://www.w3.org/2000/svg"
   xmlns:sodipodi="http://sodipodi.sourceforge.net/DTD/sodipodi-0.dtd"
   xmlns:inkscape="http://www.inkscape.org/namespaces/inkscape"
   width="210mm"
   height="297mm"
   viewBox="0 0 744.09448819 1052.3622047"
   id="svg2"
   version="1.1"
   inkscape:version="0.91 r13725"
   sodipodi:docname="disegno.svg">
  <defs
     id="defs4" />
  <sodipodi:namedview
     id="base"
     pagecolor="#ffffff"
     bordercolor="#666666"
     borderopacity="1.0"
     inkscape:pageopacity="0.0"
     inkscape:pageshadow="2"
     inkscape:zoom="1.4"
     inkscape:cx="231.89971"
     inkscape:cy="654.87405"
     inkscape:document-units="px"
     inkscape:current-layer="g4224"
     showgrid="false"
     inkscape:window-width="1366"
     inkscape:window-height="716"
     inkscape:window-x="0"
     inkscape:window-y="25"
     inkscape:window-maximized="1" />
  <metadata
     id="metadata7">
    <rdf:RDF>
      <cc:Work
         rdf:about="">
        <dc:format>image/svg+xml</dc:format>
        <dc:type
           rdf:resource="http://purl.org/dc/dcmitype/StillImage" />
        <dc:title></dc:title>
      </cc:Work>
    </rdf:RDF>
  </metadata>
  <g
     inkscape:label="Livello 1"
     inkscape:groupmode="layer"
     id="layer1">
    <g
       id="g4224"
       transform="translate(-668.72098,-4.0406102)">
      <path
         style="fill:#000000"
         d="m 895.8235,712.37034 c 2.08612,-5.435 3.11741,-21.63094 1.78632,-28.05285 -2.18121,-10.5232 -9.76222,-29.74258 -15.26659,-38.70378 -8.73178,-14.21546 -15.91746,-30.93732 -24.01077,-55.87558 -4.30432,-13.2631 -9.45153,-28.61419 -11.43825,-34.11352 -1.98673,-5.49933 -6.04954,-17.15212 -9.02849,-25.89509 -2.97894,-8.74296 -6.81068,-18.36449 -8.515,-21.38118 -3.76569,-6.66548 -13.90833,-20.25098 -22.14397,-29.66065 -3.34337,-3.81997 -8.05715,-9.6428 -10.47508,-12.93961 -9.67874,-13.19678 -17.94876,-24.05305 -24.45204,-32.09882 -7.98569,-9.8798 -16.75927,-25.73259 -16.75927,-30.28199 0,-7.27587 5.22429,-12.36393 12.73452,-12.40244 4.70799,-0.0241 5.66204,0.53939 12.40225,7.32589 4.01605,4.04363 11.1315,12.49566 15.8121,18.78231 12.97652,17.42911 33.81787,39.48561 51.01596,53.99043 8.17413,6.89406 11.90875,7.39958 16.99932,2.30105 4.08021,-4.0866 7.31037,-10.48583 7.31037,-14.4825 0,-5.83678 -4.65082,-20.76052 -11.45917,-36.77064 -7.82596,-18.40308 -13.37613,-34.8555 -19.51324,-57.84327 -2.27528,-8.5225 -6.29761,-21.22684 -8.93852,-28.23188 -5.74115,-15.2284 -9.41765,-29.0551 -9.41765,-35.41808 0,-10.74181 12.49447,-17.69468 22.49235,-12.51649 4.27451,2.2139 8.3112,10.48793 17.45923,35.78632 3.3923,9.38121 9.60427,23.93827 13.80438,32.34902 4.2001,8.41075 8.84013,18.46835 10.31116,22.35023 1.47104,3.88189 4.2215,10.49873 6.11214,14.70411 1.89065,4.20537 5.18507,12.90881 7.32095,19.34097 3.95485,11.90996 7.47982,17.1252 11.57491,17.1252 1.24829,0 4.83984,-1.72038 7.9812,-3.82307 8.28223,-5.54376 8.76237,-7.64032 7.89883,-34.49053 -0.70648,-21.96681 -0.27619,-29.67378 3.73891,-66.96777 0.90549,-8.41075 1.94441,-25.0852 2.30868,-37.05434 0.79876,-26.24527 2.50225,-42.76719 4.9477,-47.98719 2.48998,-5.31503 7.49465,-7.70069 14.69993,-7.00727 6.10988,0.588 10.36381,3.07982 14.32657,8.39206 2.31378,3.10171 2.45787,5.29724 3.23759,49.3331 0.47014,26.55247 0.34569,52.26717 -0.29362,60.66777 -0.61031,8.01946 -1.10966,26.1118 -1.10966,40.20521 0,28.63806 0.18348,29.3214 7.87306,29.3214 9.5816,0 15.13324,-7.22298 18.53477,-24.11472 2.54761,-12.65118 4.71592,-21.06613 9.39632,-36.46618 10.7952,-35.51964 16.052,-58.75089 17.701,-78.22582 1.0222,-12.07323 3.5508,-25.06899 5.8021,-29.82082 3.9467,-8.33007 14.9879,-9.62817 22.773,-2.67739 1.5411,1.37601 3.8872,4.88391 5.2135,7.79532 2.9925,6.5692 3.1146,23.08945 0.3217,43.52414 -1.0169,7.44028 -2.3948,20.67397 -3.0619,29.40821 -0.8661,11.33802 -2.349,20.08635 -5.1843,30.58453 -4.5085,16.69348 -13.2,54.43395 -14.7917,64.22931 -0.5836,3.59101 -1.1399,16.94349 -1.2364,29.67221 l -0.1753,23.14313 4.0651,8.88113 c 3.6463,7.96635 7.6408,13.44721 18.565,25.4731 1.8834,2.07333 5.5431,4.4055 8.1327,5.18258 4.0173,1.20549 5.3845,1.10754 9.3143,-0.66731 5.8805,-2.65591 9.2154,-6.24238 21.9232,-23.57724 29.2297,-39.8727 43.6498,-53.09598 65.4555,-60.02283 10.8513,-3.44707 16.1865,-3.61711 22.5483,-0.71866 6.2162,2.83211 8.168,5.41381 8.168,10.80372 0,4.0529 -1.0488,5.54691 -11.3809,16.21131 -6.2595,6.46084 -14.3119,16.16301 -17.8942,21.5604 -3.5822,5.39737 -9.979,13.78352 -14.2149,18.63587 -11.643,13.3373 -23.1492,31.45899 -29.3411,46.21078 -6.5539,15.61416 -14.0973,30.93471 -20.2481,41.12361 -2.4437,4.04801 -9.1624,17.64499 -14.9305,30.21552 -11.1251,24.24497 -16.6836,32.15751 -28.133,40.04725 -6.7798,4.67188 -10.4973,12.32918 -14.007,28.85085 -1.6492,7.76377 -3.5427,15.96516 -4.2077,18.22532 -0.665,2.26016 -1.2091,5.56859 -1.2091,7.35205 l 0,3.24267 -70.00782,0 c -66.19212,0 -69.96475,-0.11222 -69.21768,-2.05857 z"
         id="path4226"
         inkscape:connector-curvature="0" />
      <path
         inkscape:connector-curvature="0"
         id="path4240"
         d="m 895.8235,712.37034 c 2.08612,-5.435 3.11741,-21.63094 1.78632,-28.05285 -2.18121,-10.5232 -9.76222,-29.74258 -15.26659,-38.70378 -8.73178,-14.21546 -15.91746,-30.93732 -24.01077,-55.87558 -4.30432,-13.2631 -9.45153,-28.61419 -11.43825,-34.11352 -1.98673,-5.49933 -6.04954,-17.15212 -9.02849,-25.89509 -2.97894,-8.74296 -6.81068,-18.36449 -8.515,-21.38118 -3.76569,-6.66548 -13.90833,-20.25098 -22.14397,-29.66065 -3.34337,-3.81997 -8.05715,-9.6428 -10.47508,-12.93961 -9.67874,-13.19678 -17.94876,-24.05305 -24.45204,-32.09882 -7.98569,-9.8798 -16.75927,-25.73259 -16.75927,-30.28199 0,-7.27587 5.22429,-12.36393 12.73452,-12.40244 4.70799,-0.0241 5.66204,0.53939 12.40225,7.32589 4.01605,4.04363 11.1315,12.49566 15.8121,18.78231 12.97652,17.42911 33.81787,39.48561 51.01596,53.99043 8.17413,6.89406 11.90875,7.39958 16.99932,2.30105 4.08021,-4.0866 7.31037,-10.48583 7.31037,-14.4825 0,-5.83678 -4.65082,-20.76052 -11.45917,-36.77064 -7.82596,-18.40308 -13.37613,-34.8555 -19.51324,-57.84327 -2.27528,-8.5225 -6.29761,-21.22684 -8.93852,-28.23188 -5.74115,-15.2284 -9.41765,-29.0551 -9.41765,-35.41808 0,-10.74181 12.49447,-17.69468 22.49235,-12.51649 4.27451,2.2139 8.3112,10.48793 17.45923,35.78632 3.3923,9.38121 9.60427,23.93827 13.80438,32.34902 4.2001,8.41075 8.84013,18.46835 10.31116,22.35023 1.47104,3.88189 4.2215,10.49873 6.11214,14.70411 1.89065,4.20537 5.18507,12.90881 7.32095,19.34097 3.95485,11.90996 7.47982,17.1252 11.57491,17.1252 1.24829,0 4.83984,-1.72038 7.9812,-3.82307 8.28223,-5.54376 8.76237,-7.64032 7.89883,-34.49053 -0.70648,-21.96681 -0.27619,-29.67378 3.73891,-66.96777 0.90549,-8.41075 1.94441,-25.0852 2.30868,-37.05434 0.79876,-26.24527 2.50225,-42.76719 4.9477,-47.98719 2.48998,-5.31503 7.49465,-7.70069 14.69993,-7.00727 6.10988,0.588 10.36381,3.07982 14.32657,8.39206 2.31378,3.10171 2.45787,5.29724 3.23759,49.3331 0.47014,26.55247 0.34569,52.26717 -0.29362,60.66777 -0.61031,8.01946 -1.10966,26.1118 -1.10966,40.20521 0,28.63806 0.18348,29.3214 7.87306,29.3214 9.5816,0 15.13324,-7.22298 18.53477,-24.11472 2.54761,-12.65118 4.71592,-21.06613 9.39632,-36.46618 10.7952,-35.51964 16.052,-58.75089 17.701,-78.22582 1.0222,-12.07323 3.5508,-25.06899 5.8021,-29.82082 3.9467,-8.33007 14.9879,-9.62817 22.773,-2.67739 1.5411,1.37601 3.8872,4.88391 5.2135,7.79532 2.9925,6.5692 3.1146,23.08945 0.3217,43.52414 -1.0169,7.44028 -2.3948,20.67397 -3.0619,29.40821 -0.8661,11.33802 -2.349,20.08635 -5.1843,30.58453 -4.5085,16.69348 -13.2,54.43395 -14.7917,64.22931 -0.5836,3.59101 -1.1399,16.94349 -1.2364,29.67221 l -0.1753,23.14313 4.0651,8.88113 c 3.6463,7.96635 7.6408,13.44721 18.565,25.4731 1.8834,2.07333 5.5431,4.4055 8.1327,5.18258 4.0173,1.20549 5.3845,1.10754 9.3143,-0.66731 5.8805,-2.65591 9.2154,-6.24238 21.9232,-23.57724 29.2297,-39.8727 43.6498,-53.09598 65.4555,-60.02283 10.8513,-3.44707 16.1865,-3.61711 22.5483,-0.71866 6.2162,2.83211 8.168,5.41381 8.168,10.80372 0,4.0529 -1.0488,5.54691 -11.3809,16.21131 -6.2595,6.46084 -14.3119,16.16301 -17.8942,21.5604 -3.5822,5.39737 -9.979,13.78352 -14.2149,18.63587 -11.643,13.3373 -23.1492,31.45899 -29.3411,46.21078 -6.5539,15.61416 -14.0973,30.93471 -20.2481,41.12361 -2.4437,4.04801 -9.1624,17.64499 -14.9305,30.21552 -11.1251,24.24497 -16.6836,32.15751 -28.133,40.04725 -6.7798,4.67188 -10.4973,12.32918 -14.007,28.85085 -1.6492,7.76377 -3.5427,15.96516 -4.2077,18.22532 -0.665,2.26016 -1.2091,5.56859 -1.2091,7.35205 l 0,3.24267 -70.00782,0 c -66.19212,0 -69.96475,-0.11222 -69.21768,-2.05857 z"
         style="fill:none;stroke:#f300fb;stroke-opacity:1;stroke-width:4;stroke-miterlimit:4;stroke-dasharray:none" />
    </g>
  </g>
</svg>
