solid OpenSCAD_Model
  facet normal -1 0 0
    outer loop
      vertex 0 66 1.5
      vertex 0 69 5
      vertex 0 72.5 1.5
    endloop
  endfacet
  facet normal -1 0 0
    outer loop
      vertex 0 66 33
      vertex 0 69 5
      vertex 0 66 1.5
    endloop
  endfacet
  facet normal -1 0 0
    outer loop
      vertex 0 69 5
      vertex 0 66 33
      vertex 0 69 36
    endloop
  endfacet
  facet normal -1 0 0
    outer loop
      vertex 0 63 36
      vertex 0 66 33
      vertex 0 63 33
    endloop
  endfacet
  facet normal -1 0 0
    outer loop
      vertex 0 66 33
      vertex 0 63 36
      vertex 0 69 36
    endloop
  endfacet
  facet normal -1 0 0
    outer loop
      vertex 0 3 1.5
      vertex 0 0 5
      vertex 0 3 33
    endloop
  endfacet
  facet normal -1 0 -0
    outer loop
      vertex 0 0 5
      vertex 0 3 1.5
      vertex 0 -3.5 1.5
    endloop
  endfacet
  facet normal -1 0 0
    outer loop
      vertex 0 3 33
      vertex 0 6 36
      vertex 0 6 33
    endloop
  endfacet
  facet normal -1 0 0
    outer loop
      vertex 0 3 33
      vertex 0 0 36
      vertex 0 6 36
    endloop
  endfacet
  facet normal -1 0 0
    outer loop
      vertex 0 0 36
      vertex 0 3 33
      vertex 0 0 5
    endloop
  endfacet
  facet normal -0 0 1
    outer loop
      vertex 0 6 36
      vertex 56 0 36
      vertex 56 6 36
    endloop
  endfacet
  facet normal 0 0 1
    outer loop
      vertex 56 0 36
      vertex 0 6 36
      vertex 0 0 36
    endloop
  endfacet
  facet normal -0 0 1
    outer loop
      vertex 0 69 36
      vertex 56 63 36
      vertex 56 69 36
    endloop
  endfacet
  facet normal 0 0 1
    outer loop
      vertex 56 63 36
      vertex 0 69 36
      vertex 0 63 36
    endloop
  endfacet
  facet normal 1 0 0
    outer loop
      vertex 56 69 36
      vertex 56 66 33
      vertex 56 69 5
    endloop
  endfacet
  facet normal 1 -0 0
    outer loop
      vertex 56 63 36
      vertex 56 66 33
      vertex 56 69 36
    endloop
  endfacet
  facet normal 1 0 0
    outer loop
      vertex 56 66 33
      vertex 56 63 36
      vertex 56 63 33
    endloop
  endfacet
  facet normal 1 0 0
    outer loop
      vertex 56 69 5
      vertex 56 66 1.5
      vertex 56 72.5 1.5
    endloop
  endfacet
  facet normal 1 0 0
    outer loop
      vertex 56 66 1.5
      vertex 56 69 5
      vertex 56 66 33
    endloop
  endfacet
  facet normal 1 0 0
    outer loop
      vertex 56 6 36
      vertex 56 3 33
      vertex 56 6 33
    endloop
  endfacet
  facet normal 1 -0 0
    outer loop
      vertex 56 0 36
      vertex 56 3 33
      vertex 56 6 36
    endloop
  endfacet
  facet normal 1 0 0
    outer loop
      vertex 56 0 5
      vertex 56 3 33
      vertex 56 0 36
    endloop
  endfacet
  facet normal 1 0 0
    outer loop
      vertex 56 3 33
      vertex 56 0 5
      vertex 56 3 1.5
    endloop
  endfacet
  facet normal 1 0 0
    outer loop
      vertex 56 3 1.5
      vertex 56 0 5
      vertex 56 -3.5 1.5
    endloop
  endfacet
  facet normal 0 -1 0
    outer loop
      vertex 25 0 8
      vertex 32 0 17
      vertex 25 0 17
    endloop
  endfacet
  facet normal 0 -1 -0
    outer loop
      vertex 32 0 17
      vertex 25 0 8
      vertex 32 0 8
    endloop
  endfacet
  facet normal 0 -1 0
    outer loop
      vertex 25 0 17
      vertex 0 0 36
      vertex 7 0 17
    endloop
  endfacet
  facet normal 0 -1 0
    outer loop
      vertex 0 0 5
      vertex 7 0 17
      vertex 0 0 36
    endloop
  endfacet
  facet normal 0 -1 0
    outer loop
      vertex 0 0 5
      vertex 25 0 8
      vertex 7 0 8
    endloop
  endfacet
  facet normal 0 -1 -0
    outer loop
      vertex 25 0 8
      vertex 0 0 5
      vertex 32 0 8
    endloop
  endfacet
  facet normal 0 -1 0
    outer loop
      vertex 56 0 5
      vertex 32 0 8
      vertex 0 0 5
    endloop
  endfacet
  facet normal 0 -1 -0
    outer loop
      vertex 7 0 17
      vertex 0 0 5
      vertex 7 0 8
    endloop
  endfacet
  facet normal 0 -1 0
    outer loop
      vertex 0 0 36
      vertex 25 0 17
      vertex 56 0 36
    endloop
  endfacet
  facet normal 0 -1 0
    outer loop
      vertex 32 0 17
      vertex 56 0 36
      vertex 25 0 17
    endloop
  endfacet
  facet normal 0 -1 0
    outer loop
      vertex 42 0 17
      vertex 56 0 36
      vertex 32 0 17
    endloop
  endfacet
  facet normal 0 -1 0
    outer loop
      vertex 56 0 5
      vertex 42 0 17
      vertex 42 0 8
    endloop
  endfacet
  facet normal 0 -1 0
    outer loop
      vertex 42 0 17
      vertex 56 0 5
      vertex 56 0 36
    endloop
  endfacet
  facet normal 0 -1 0
    outer loop
      vertex 32 0 8
      vertex 56 0 5
      vertex 42 0 8
    endloop
  endfacet
  facet normal 0 1 -0
    outer loop
      vertex 56 69 5
      vertex 0 69 36
      vertex 56 69 36
    endloop
  endfacet
  facet normal 0 1 0
    outer loop
      vertex 0 69 36
      vertex 56 69 5
      vertex 0 69 5
    endloop
  endfacet
  facet normal 0 0 -1
    outer loop
      vertex 0 3 33
      vertex 56 6 33
      vertex 56 3 33
    endloop
  endfacet
  facet normal -0 0 -1
    outer loop
      vertex 56 6 33
      vertex 0 3 33
      vertex 0 6 33
    endloop
  endfacet
  facet normal 0 0 -1
    outer loop
      vertex 0 63 33
      vertex 56 66 33
      vertex 56 63 33
    endloop
  endfacet
  facet normal -0 0 -1
    outer loop
      vertex 56 66 33
      vertex 0 63 33
      vertex 0 66 33
    endloop
  endfacet
  facet normal 0 1 -0
    outer loop
      vertex 32 3 8
      vertex 25 3 17
      vertex 32 3 17
    endloop
  endfacet
  facet normal 0 1 0
    outer loop
      vertex 25 3 17
      vertex 32 3 8
      vertex 25 3 8
    endloop
  endfacet
  facet normal 0 1 0
    outer loop
      vertex 32 3 17
      vertex 56 3 33
      vertex 42 3 17
    endloop
  endfacet
  facet normal 0 1 -0
    outer loop
      vertex 56 3 1.5
      vertex 42 3 17
      vertex 56 3 33
    endloop
  endfacet
  facet normal 0 1 0
    outer loop
      vertex 56 3 1.5
      vertex 32 3 8
      vertex 42 3 8
    endloop
  endfacet
  facet normal 0 1 0
    outer loop
      vertex 32 3 8
      vertex 56 3 1.5
      vertex 25 3 8
    endloop
  endfacet
  facet normal 0 1 0
    outer loop
      vertex 25 3 8
      vertex 56 3 1.5
      vertex 0 3 1.5
    endloop
  endfacet
  facet normal 0 1 0
    outer loop
      vertex 42 3 17
      vertex 56 3 1.5
      vertex 42 3 8
    endloop
  endfacet
  facet normal 0 1 0
    outer loop
      vertex 25 3 17
      vertex 56 3 33
      vertex 32 3 17
    endloop
  endfacet
  facet normal 0 1 0
    outer loop
      vertex 56 3 33
      vertex 25 3 17
      vertex 0 3 33
    endloop
  endfacet
  facet normal 0 1 -0
    outer loop
      vertex 7 3 17
      vertex 0 3 33
      vertex 25 3 17
    endloop
  endfacet
  facet normal 0 1 0
    outer loop
      vertex 0 3 1.5
      vertex 7 3 17
      vertex 7 3 8
    endloop
  endfacet
  facet normal 0 1 0
    outer loop
      vertex 7 3 17
      vertex 0 3 1.5
      vertex 0 3 33
    endloop
  endfacet
  facet normal 0 1 0
    outer loop
      vertex 25 3 8
      vertex 0 3 1.5
      vertex 7 3 8
    endloop
  endfacet
  facet normal 0 -1 0
    outer loop
      vertex 0 66 1.5
      vertex 56 66 33
      vertex 0 66 33
    endloop
  endfacet
  facet normal 0 -1 -0
    outer loop
      vertex 56 66 33
      vertex 0 66 1.5
      vertex 56 66 1.5
    endloop
  endfacet
  facet normal 0 1 -0
    outer loop
      vertex 56 6 33
      vertex 0 6 36
      vertex 56 6 36
    endloop
  endfacet
  facet normal 0 1 0
    outer loop
      vertex 0 6 36
      vertex 56 6 33
      vertex 0 6 33
    endloop
  endfacet
  facet normal 0 -1 0
    outer loop
      vertex 0 63 33
      vertex 56 63 36
      vertex 0 63 36
    endloop
  endfacet
  facet normal 0 -1 -0
    outer loop
      vertex 56 63 36
      vertex 0 63 33
      vertex 56 63 33
    endloop
  endfacet
  facet normal 0.923888 -0.382663 0
    outer loop
      vertex -12 72 1.5
      vertex -11.2678 73.7678 -1.5
      vertex -11.2678 73.7678 1.5
    endloop
  endfacet
  facet normal 0.923888 -0.382663 0
    outer loop
      vertex -11.2678 73.7678 -1.5
      vertex -12 72 1.5
      vertex -12 72 -1.5
    endloop
  endfacet
  facet normal -0.382668 -0.923886 0
    outer loop
      vertex -9.5 74.5 -1.5
      vertex -7.73223 73.7678 1.5
      vertex -9.5 74.5 1.5
    endloop
  endfacet
  facet normal -0.382668 -0.923886 -0
    outer loop
      vertex -7.73223 73.7678 1.5
      vertex -9.5 74.5 -1.5
      vertex -7.73223 73.7678 -1.5
    endloop
  endfacet
  facet normal 0.382663 -0.923888 0
    outer loop
      vertex -11.2678 73.7678 -1.5
      vertex -9.5 74.5 1.5
      vertex -11.2678 73.7678 1.5
    endloop
  endfacet
  facet normal 0.382663 -0.923888 0
    outer loop
      vertex -9.5 74.5 1.5
      vertex -11.2678 73.7678 -1.5
      vertex -9.5 74.5 -1.5
    endloop
  endfacet
  facet normal 0 0 1
    outer loop
      vertex -11.2678 70.2322 1.5
      vertex -5 59 1.5
      vertex -9.5 69.5 1.5
    endloop
  endfacet
  facet normal 0 0 1
    outer loop
      vertex -5 10 1.5
      vertex -7.73223 -1.23223 1.5
      vertex -7 -3 1.5
    endloop
  endfacet
  facet normal 0 0 1
    outer loop
      vertex -33 34.5 1.5
      vertex -5 59 1.5
      vertex -31.667 47.1826 1.5
    endloop
  endfacet
  facet normal 0 0 1
    outer loop
      vertex -5 10 1.5
      vertex -9.5 -0.5 1.5
      vertex -7.73223 -1.23223 1.5
    endloop
  endfacet
  facet normal 0 0 1
    outer loop
      vertex -5 59 1.5
      vertex -11.2678 70.2322 1.5
      vertex -27.7263 59.3109 1.5
    endloop
  endfacet
  facet normal -0 -0 1
    outer loop
      vertex -31.667 21.8174 1.5
      vertex -5 10 1.5
      vertex -33 34.5 1.5
    endloop
  endfacet
  facet normal -0 0 1
    outer loop
      vertex -21.35 70.3549 1.5
      vertex -11.2678 70.2322 1.5
      vertex -12 72 1.5
    endloop
  endfacet
  facet normal 0 -0 1
    outer loop
      vertex -27.7263 9.68906 1.5
      vertex -5 10 1.5
      vertex -31.667 21.8174 1.5
    endloop
  endfacet
  facet normal 0 0 1
    outer loop
      vertex 46.85 92.5145 1.5
      vertex 56 72.5 1.5
      vertex 58.5 87.3275 1.5
    endloop
  endfacet
  facet normal 0 0 1
    outer loop
      vertex 34.3762 95.1658 1.5
      vertex 56 72.5 1.5
      vertex 46.85 92.5145 1.5
    endloop
  endfacet
  facet normal -0 0 1
    outer loop
      vertex 21.6238 95.1658 1.5
      vertex 56 72.5 1.5
      vertex 34.3762 95.1658 1.5
    endloop
  endfacet
  facet normal 0 0 1
    outer loop
      vertex 0 72.5 1.5
      vertex 21.6238 95.1658 1.5
      vertex 9.14996 92.5145 1.5
    endloop
  endfacet
  facet normal 0 0 1
    outer loop
      vertex 21.6238 95.1658 1.5
      vertex 0 72.5 1.5
      vertex 56 72.5 1.5
    endloop
  endfacet
  facet normal -0 0 1
    outer loop
      vertex -7.73223 73.7678 1.5
      vertex 0 72.5 1.5
      vertex -2.5 87.3275 1.5
    endloop
  endfacet
  facet normal -0 0 1
    outer loop
      vertex -2.5 87.3275 1.5
      vertex 0 72.5 1.5
      vertex 9.14996 92.5145 1.5
    endloop
  endfacet
  facet normal 0 0 1
    outer loop
      vertex 87.667 47.1826 1.5
      vertex 61 59 1.5
      vertex 89 34.5 1.5
    endloop
  endfacet
  facet normal 0 0 1
    outer loop
      vertex 89 34.5 1.5
      vertex 67.2678 -1.23223 1.5
      vertex 68 -3 1.5
    endloop
  endfacet
  facet normal 0 0 1
    outer loop
      vertex 61 59 1.5
      vertex 67.2678 70.2322 1.5
      vertex 65.5 69.5 1.5
    endloop
  endfacet
  facet normal 0 0 1
    outer loop
      vertex 61 10 1.5
      vertex 89 34.5 1.5
      vertex 61 59 1.5
    endloop
  endfacet
  facet normal 0 0 1
    outer loop
      vertex 61 59 1.5
      vertex 65.5 69.5 1.5
      vertex 63.7322 70.2322 1.5
    endloop
  endfacet
  facet normal 0 0 1
    outer loop
      vertex 89 34.5 1.5
      vertex 61 10 1.5
      vertex 67.2678 -1.23223 1.5
    endloop
  endfacet
  facet normal 0 0 1
    outer loop
      vertex 56 72.5 1.5
      vertex 63.7322 70.2322 1.5
      vertex 63 72 1.5
    endloop
  endfacet
  facet normal 0 0 1
    outer loop
      vertex 67.2678 -1.23223 1.5
      vertex 61 10 1.5
      vertex 65.5 -0.5 1.5
    endloop
  endfacet
  facet normal 0 0 1
    outer loop
      vertex 61 59 1.5
      vertex 83.7263 59.3109 1.5
      vertex 67.2678 70.2322 1.5
    endloop
  endfacet
  facet normal 0 0 1
    outer loop
      vertex 77.35 70.3549 1.5
      vertex 67.2678 70.2322 1.5
      vertex 83.7263 59.3109 1.5
    endloop
  endfacet
  facet normal 0 0 1
    outer loop
      vertex 83.7263 59.3109 1.5
      vertex 61 59 1.5
      vertex 87.667 47.1826 1.5
    endloop
  endfacet
  facet normal 0 0 1
    outer loop
      vertex 67.2678 70.2322 1.5
      vertex 77.35 70.3549 1.5
      vertex 68 72 1.5
    endloop
  endfacet
  facet normal 0 0 1
    outer loop
      vertex 89 34.5 1.5
      vertex 68 -3 1.5
      vertex 87.667 21.8174 1.5
    endloop
  endfacet
  facet normal -0 0 1
    outer loop
      vertex 67.2678 73.7678 1.5
      vertex 77.35 70.3549 1.5
      vertex 68.817 79.8318 1.5
    endloop
  endfacet
  facet normal 0 0 1
    outer loop
      vertex 87.667 21.8174 1.5
      vertex 68 -3 1.5
      vertex 83.7263 9.68906 1.5
    endloop
  endfacet
  facet normal 0 0 1
    outer loop
      vertex 83.7263 9.68906 1.5
      vertex 68 -3 1.5
      vertex 77.35 -1.3549 1.5
    endloop
  endfacet
  facet normal 0 0 1
    outer loop
      vertex 77.35 70.3549 1.5
      vertex 67.2678 73.7678 1.5
      vertex 68 72 1.5
    endloop
  endfacet
  facet normal 0 0 1
    outer loop
      vertex 68.817 79.8318 1.5
      vertex 65.5 74.5 1.5
      vertex 67.2678 73.7678 1.5
    endloop
  endfacet
  facet normal 0 0 1
    outer loop
      vertex 68.817 79.8318 1.5
      vertex 63.7322 73.7678 1.5
      vertex 65.5 74.5 1.5
    endloop
  endfacet
  facet normal 0 0 1
    outer loop
      vertex 65.5 -0.5 1.5
      vertex 61 10 1.5
      vertex 63.7322 -1.23223 1.5
    endloop
  endfacet
  facet normal 0 0 1
    outer loop
      vertex 58.5 87.3275 1.5
      vertex 63.7322 73.7678 1.5
      vertex 68.817 79.8318 1.5
    endloop
  endfacet
  facet normal 0 0 1
    outer loop
      vertex 56 72.5 1.5
      vertex 63.7322 73.7678 1.5
      vertex 58.5 87.3275 1.5
    endloop
  endfacet
  facet normal 0 0 1
    outer loop
      vertex 63.7322 73.7678 1.5
      vertex 56 72.5 1.5
      vertex 63 72 1.5
    endloop
  endfacet
  facet normal 0 0 1
    outer loop
      vertex 63.7322 70.2322 1.5
      vertex 56 72.5 1.5
      vertex 56 66 1.5
    endloop
  endfacet
  facet normal 0 0 1
    outer loop
      vertex 63.7322 70.2322 1.5
      vertex 56 66 1.5
      vertex 61 59 1.5
    endloop
  endfacet
  facet normal -0 0 1
    outer loop
      vertex 0 66 1.5
      vertex 61 59 1.5
      vertex 56 66 1.5
    endloop
  endfacet
  facet normal 0 0 1
    outer loop
      vertex 0 66 1.5
      vertex -5 59 1.5
      vertex 61 59 1.5
    endloop
  endfacet
  facet normal 0 0 1
    outer loop
      vertex -7.73223 70.2322 1.5
      vertex 0 72.5 1.5
      vertex -7 72 1.5
    endloop
  endfacet
  facet normal 0 0 1
    outer loop
      vertex 0 66 1.5
      vertex -7.73223 70.2322 1.5
      vertex -5 59 1.5
    endloop
  endfacet
  facet normal 0 0 1
    outer loop
      vertex 0 72.5 1.5
      vertex -7.73223 70.2322 1.5
      vertex 0 66 1.5
    endloop
  endfacet
  facet normal 0 0 1
    outer loop
      vertex 0 72.5 1.5
      vertex -7.73223 73.7678 1.5
      vertex -7 72 1.5
    endloop
  endfacet
  facet normal -0 0 1
    outer loop
      vertex -12.817 79.8318 1.5
      vertex -7.73223 73.7678 1.5
      vertex -2.5 87.3275 1.5
    endloop
  endfacet
  facet normal 0 0 1
    outer loop
      vertex -7.73223 73.7678 1.5
      vertex -12.817 79.8318 1.5
      vertex -9.5 74.5 1.5
    endloop
  endfacet
  facet normal 0 0 1
    outer loop
      vertex -11.2678 73.7678 1.5
      vertex -21.35 70.3549 1.5
      vertex -12 72 1.5
    endloop
  endfacet
  facet normal 0 0 1
    outer loop
      vertex -21.35 70.3549 1.5
      vertex -11.2678 73.7678 1.5
      vertex -12.817 79.8318 1.5
    endloop
  endfacet
  facet normal 0 0 1
    outer loop
      vertex -9.5 74.5 1.5
      vertex -12.817 79.8318 1.5
      vertex -11.2678 73.7678 1.5
    endloop
  endfacet
  facet normal 0 0 1
    outer loop
      vertex 67.2678 -4.76777 1.5
      vertex 77.35 -1.3549 1.5
      vertex 68 -3 1.5
    endloop
  endfacet
  facet normal 0 0 1
    outer loop
      vertex 77.35 -1.3549 1.5
      vertex 67.2678 -4.76777 1.5
      vertex 68.817 -10.8318 1.5
    endloop
  endfacet
  facet normal -0 0 1
    outer loop
      vertex 65.5 -5.5 1.5
      vertex 68.817 -10.8318 1.5
      vertex 67.2678 -4.76777 1.5
    endloop
  endfacet
  facet normal 0 0 1
    outer loop
      vertex 63.7322 -4.76777 1.5
      vertex 68.817 -10.8318 1.5
      vertex 65.5 -5.5 1.5
    endloop
  endfacet
  facet normal -0 0 1
    outer loop
      vertex 56 3 1.5
      vertex 63.7322 -1.23223 1.5
      vertex 61 10 1.5
    endloop
  endfacet
  facet normal 0 0 1
    outer loop
      vertex 63.7322 -4.76777 1.5
      vertex 58.5 -18.3275 1.5
      vertex 68.817 -10.8318 1.5
    endloop
  endfacet
  facet normal -0 0 1
    outer loop
      vertex 56 -3.5 1.5
      vertex 63.7322 -4.76777 1.5
      vertex 63 -3 1.5
    endloop
  endfacet
  facet normal 0 0 1
    outer loop
      vertex 56 -3.5 1.5
      vertex 63.7322 -1.23223 1.5
      vertex 56 3 1.5
    endloop
  endfacet
  facet normal 0 0 1
    outer loop
      vertex 63.7322 -1.23223 1.5
      vertex 56 -3.5 1.5
      vertex 63 -3 1.5
    endloop
  endfacet
  facet normal 0 0 1
    outer loop
      vertex 61 10 1.5
      vertex 0 3 1.5
      vertex 56 3 1.5
    endloop
  endfacet
  facet normal -0 0 1
    outer loop
      vertex -7 -3 1.5
      vertex 0 -3.5 1.5
      vertex 0 3 1.5
    endloop
  endfacet
  facet normal -0 0 1
    outer loop
      vertex -5 10 1.5
      vertex 0 3 1.5
      vertex 61 10 1.5
    endloop
  endfacet
  facet normal 0 0 1
    outer loop
      vertex -7 -3 1.5
      vertex 0 3 1.5
      vertex -5 10 1.5
    endloop
  endfacet
  facet normal -0 0 1
    outer loop
      vertex -9.5 69.5 1.5
      vertex -5 59 1.5
      vertex -7.73223 70.2322 1.5
    endloop
  endfacet
  facet normal 0 0 1
    outer loop
      vertex -7.73223 -4.76777 1.5
      vertex 0 -3.5 1.5
      vertex -7 -3 1.5
    endloop
  endfacet
  facet normal 0 0 1
    outer loop
      vertex 0 -3.5 1.5
      vertex -7.73223 -4.76777 1.5
      vertex -2.5 -18.3275 1.5
    endloop
  endfacet
  facet normal 0 0 1
    outer loop
      vertex -12.817 -10.8318 1.5
      vertex -7.73223 -4.76777 1.5
      vertex -9.5 -5.5 1.5
    endloop
  endfacet
  facet normal 0 0 1
    outer loop
      vertex -12.817 -10.8318 1.5
      vertex -9.5 -5.5 1.5
      vertex -11.2678 -4.76777 1.5
    endloop
  endfacet
  facet normal 0 0 1
    outer loop
      vertex -7.73223 -4.76777 1.5
      vertex -12.817 -10.8318 1.5
      vertex -2.5 -18.3275 1.5
    endloop
  endfacet
  facet normal 0 0 1
    outer loop
      vertex -21.35 -1.3549 1.5
      vertex -11.2678 -4.76777 1.5
      vertex -12 -3 1.5
    endloop
  endfacet
  facet normal 0 0 1
    outer loop
      vertex -11.2678 70.2322 1.5
      vertex -21.35 70.3549 1.5
      vertex -27.7263 59.3109 1.5
    endloop
  endfacet
  facet normal 0 0 1
    outer loop
      vertex -5 59 1.5
      vertex -27.7263 59.3109 1.5
      vertex -31.667 47.1826 1.5
    endloop
  endfacet
  facet normal 0 0 1
    outer loop
      vertex -11.2678 -4.76777 1.5
      vertex -21.35 -1.3549 1.5
      vertex -12.817 -10.8318 1.5
    endloop
  endfacet
  facet normal 0 0 1
    outer loop
      vertex -5 59 1.5
      vertex -33 34.5 1.5
      vertex -5 10 1.5
    endloop
  endfacet
  facet normal 0 0 1
    outer loop
      vertex -11.2678 -1.23223 1.5
      vertex -21.35 -1.3549 1.5
      vertex -12 -3 1.5
    endloop
  endfacet
  facet normal 0 -0 1
    outer loop
      vertex -11.2678 -1.23223 1.5
      vertex -5 10 1.5
      vertex -27.7263 9.68906 1.5
    endloop
  endfacet
  facet normal 0 -0 1
    outer loop
      vertex -21.35 -1.3549 1.5
      vertex -11.2678 -1.23223 1.5
      vertex -27.7263 9.68906 1.5
    endloop
  endfacet
  facet normal 0 0 1
    outer loop
      vertex -5 10 1.5
      vertex -11.2678 -1.23223 1.5
      vertex -9.5 -0.5 1.5
    endloop
  endfacet
  facet normal 0 0 1
    outer loop
      vertex 63.7322 -4.76777 1.5
      vertex 56 -3.5 1.5
      vertex 58.5 -18.3275 1.5
    endloop
  endfacet
  facet normal 0 0 1
    outer loop
      vertex 56 -3.5 1.5
      vertex 46.85 -23.5144 1.5
      vertex 58.5 -18.3275 1.5
    endloop
  endfacet
  facet normal 0 0 1
    outer loop
      vertex 56 -3.5 1.5
      vertex 34.3762 -26.1658 1.5
      vertex 46.85 -23.5144 1.5
    endloop
  endfacet
  facet normal 0 0 1
    outer loop
      vertex 56 -3.5 1.5
      vertex 21.6238 -26.1658 1.5
      vertex 34.3762 -26.1658 1.5
    endloop
  endfacet
  facet normal -0 0 1
    outer loop
      vertex 0 -3.5 1.5
      vertex 21.6238 -26.1658 1.5
      vertex 56 -3.5 1.5
    endloop
  endfacet
  facet normal 0 0 1
    outer loop
      vertex 21.6238 -26.1658 1.5
      vertex 0 -3.5 1.5
      vertex 9.14996 -23.5144 1.5
    endloop
  endfacet
  facet normal 0 0 1
    outer loop
      vertex 9.14996 -23.5144 1.5
      vertex 0 -3.5 1.5
      vertex -2.5 -18.3275 1.5
    endloop
  endfacet
  facet normal -0.923883 -0.382676 0
    outer loop
      vertex -7 72 -1.5
      vertex -7.73223 73.7678 1.5
      vertex -7.73223 73.7678 -1.5
    endloop
  endfacet
  facet normal -0.923883 -0.382676 0
    outer loop
      vertex -7.73223 73.7678 1.5
      vertex -7 72 -1.5
      vertex -7 72 1.5
    endloop
  endfacet
  facet normal 0 0 -1
    outer loop
      vertex -11.2678 -1.23223 -1.5
      vertex -5 10 -1.5
      vertex -9.5 -0.5 -1.5
    endloop
  endfacet
  facet normal 0 0 -1
    outer loop
      vertex -5 59 -1.5
      vertex -7.73223 70.2322 -1.5
      vertex -7 72 -1.5
    endloop
  endfacet
  facet normal 0 0 -1
    outer loop
      vertex -33 34.5 -1.5
      vertex -5 10 -1.5
      vertex -31.667 21.8174 -1.5
    endloop
  endfacet
  facet normal 0 0 -1
    outer loop
      vertex -5 59 -1.5
      vertex -9.5 69.5 -1.5
      vertex -7.73223 70.2322 -1.5
    endloop
  endfacet
  facet normal 0 0 -1
    outer loop
      vertex -5 10 -1.5
      vertex -11.2678 -1.23223 -1.5
      vertex -27.7263 9.68906 -1.5
    endloop
  endfacet
  facet normal 0 -0 -1
    outer loop
      vertex -31.667 47.1826 -1.5
      vertex -5 59 -1.5
      vertex -33 34.5 -1.5
    endloop
  endfacet
  facet normal 0 0 -1
    outer loop
      vertex -21.35 -1.3549 -1.5
      vertex -11.2678 -1.23223 -1.5
      vertex -12 -3 -1.5
    endloop
  endfacet
  facet normal 0 -0 -1
    outer loop
      vertex -27.7263 59.3109 -1.5
      vertex -5 59 -1.5
      vertex -31.667 47.1826 -1.5
    endloop
  endfacet
  facet normal -0 0 -1
    outer loop
      vertex 87.667 21.8174 -1.5
      vertex 61 10 -1.5
      vertex 89 34.5 -1.5
    endloop
  endfacet
  facet normal 0 0 -1
    outer loop
      vertex 89 34.5 -1.5
      vertex 67.2678 70.2322 -1.5
      vertex 68 72 -1.5
    endloop
  endfacet
  facet normal 0 0 -1
    outer loop
      vertex 61 10 -1.5
      vertex 67.2678 -1.23223 -1.5
      vertex 65.5 -0.5 -1.5
    endloop
  endfacet
  facet normal 0 0 -1
    outer loop
      vertex 61 59 -1.5
      vertex 89 34.5 -1.5
      vertex 61 10 -1.5
    endloop
  endfacet
  facet normal 0 0 -1
    outer loop
      vertex 61 10 -1.5
      vertex 65.5 -0.5 -1.5
      vertex 63.7322 -1.23223 -1.5
    endloop
  endfacet
  facet normal 0 0 -1
    outer loop
      vertex 89 34.5 -1.5
      vertex 61 59 -1.5
      vertex 67.2678 70.2322 -1.5
    endloop
  endfacet
  facet normal 0 0 -1
    outer loop
      vertex 61 10 -1.5
      vertex 63.7322 -1.23223 -1.5
      vertex 63 -3 -1.5
    endloop
  endfacet
  facet normal 0 0 -1
    outer loop
      vertex 67.2678 70.2322 -1.5
      vertex 61 59 -1.5
      vertex 65.5 69.5 -1.5
    endloop
  endfacet
  facet normal 0 0 -1
    outer loop
      vertex 61 10 -1.5
      vertex 83.7263 9.68906 -1.5
      vertex 67.2678 -1.23223 -1.5
    endloop
  endfacet
  facet normal 0 0 -1
    outer loop
      vertex 77.35 -1.3549 -1.5
      vertex 67.2678 -1.23223 -1.5
      vertex 83.7263 9.68906 -1.5
    endloop
  endfacet
  facet normal 0 0 -1
    outer loop
      vertex 83.7263 9.68906 -1.5
      vertex 61 10 -1.5
      vertex 87.667 21.8174 -1.5
    endloop
  endfacet
  facet normal 0 0 -1
    outer loop
      vertex 67.2678 -1.23223 -1.5
      vertex 77.35 -1.3549 -1.5
      vertex 68 -3 -1.5
    endloop
  endfacet
  facet normal 0 0 -1
    outer loop
      vertex 89 34.5 -1.5
      vertex 68 72 -1.5
      vertex 87.667 47.1826 -1.5
    endloop
  endfacet
  facet normal 0 0 -1
    outer loop
      vertex 67.2678 -4.76777 -1.5
      vertex 77.35 -1.3549 -1.5
      vertex 68.817 -10.8318 -1.5
    endloop
  endfacet
  facet normal 0 0 -1
    outer loop
      vertex 87.667 47.1826 -1.5
      vertex 68 72 -1.5
      vertex 83.7263 59.3109 -1.5
    endloop
  endfacet
  facet normal 0 0 -1
    outer loop
      vertex 83.7263 59.3109 -1.5
      vertex 68 72 -1.5
      vertex 77.35 70.3549 -1.5
    endloop
  endfacet
  facet normal 0 0 -1
    outer loop
      vertex 77.35 -1.3549 -1.5
      vertex 67.2678 -4.76777 -1.5
      vertex 68 -3 -1.5
    endloop
  endfacet
  facet normal 0 0 -1
    outer loop
      vertex 68.817 -10.8318 -1.5
      vertex 65.5 -5.5 -1.5
      vertex 67.2678 -4.76777 -1.5
    endloop
  endfacet
  facet normal 0 0 -1
    outer loop
      vertex 68.817 -10.8318 -1.5
      vertex 63.7322 -4.76777 -1.5
      vertex 65.5 -5.5 -1.5
    endloop
  endfacet
  facet normal -0 0 -1
    outer loop
      vertex 65.5 69.5 -1.5
      vertex 61 59 -1.5
      vertex 63.7322 70.2322 -1.5
    endloop
  endfacet
  facet normal 0 0 -1
    outer loop
      vertex 58.5 -18.3275 -1.5
      vertex 63.7322 -4.76777 -1.5
      vertex 68.817 -10.8318 -1.5
    endloop
  endfacet
  facet normal 0 0 -1
    outer loop
      vertex 58.5 -18.3275 -1.5
      vertex 63 -3 -1.5
      vertex 63.7322 -4.76777 -1.5
    endloop
  endfacet
  facet normal 0 0 -1
    outer loop
      vertex 46.85 -23.5144 -1.5
      vertex 63 -3 -1.5
      vertex 58.5 -18.3275 -1.5
    endloop
  endfacet
  facet normal -0 0 -1
    outer loop
      vertex 63 -3 -1.5
      vertex 46.85 -23.5144 -1.5
      vertex 61 10 -1.5
    endloop
  endfacet
  facet normal 0 0 -1
    outer loop
      vertex 34.3762 -26.1658 -1.5
      vertex 61 10 -1.5
      vertex 46.85 -23.5144 -1.5
    endloop
  endfacet
  facet normal 0 0 -1
    outer loop
      vertex 21.6238 -26.1658 -1.5
      vertex 61 10 -1.5
      vertex 34.3762 -26.1658 -1.5
    endloop
  endfacet
  facet normal 0 0 -1
    outer loop
      vertex -5 10 -1.5
      vertex 21.6238 -26.1658 -1.5
      vertex 9.14996 -23.5144 -1.5
    endloop
  endfacet
  facet normal 0 0 -1
    outer loop
      vertex -7 -3 -1.5
      vertex 9.14996 -23.5144 -1.5
      vertex -2.5 -18.3275 -1.5
    endloop
  endfacet
  facet normal 0 0 -1
    outer loop
      vertex 21.6238 -26.1658 -1.5
      vertex -5 10 -1.5
      vertex 61 10 -1.5
    endloop
  endfacet
  facet normal 0 0 -1
    outer loop
      vertex -7.73223 -1.23223 -1.5
      vertex -5 10 -1.5
      vertex -7 -3 -1.5
    endloop
  endfacet
  facet normal 0 0 -1
    outer loop
      vertex 9.14996 -23.5144 -1.5
      vertex -7 -3 -1.5
      vertex -5 10 -1.5
    endloop
  endfacet
  facet normal 0 0 -1
    outer loop
      vertex -2.5 -18.3275 -1.5
      vertex -7.73223 -4.76777 -1.5
      vertex -7 -3 -1.5
    endloop
  endfacet
  facet normal 0 0 -1
    outer loop
      vertex -12.817 -10.8318 -1.5
      vertex -7.73223 -4.76777 -1.5
      vertex -2.5 -18.3275 -1.5
    endloop
  endfacet
  facet normal 0 0 -1
    outer loop
      vertex -7.73223 -4.76777 -1.5
      vertex -12.817 -10.8318 -1.5
      vertex -9.5 -5.5 -1.5
    endloop
  endfacet
  facet normal 0 0 -1
    outer loop
      vertex -11.2678 -4.76777 -1.5
      vertex -21.35 -1.3549 -1.5
      vertex -12 -3 -1.5
    endloop
  endfacet
  facet normal 0 0 -1
    outer loop
      vertex -21.35 -1.3549 -1.5
      vertex -11.2678 -4.76777 -1.5
      vertex -12.817 -10.8318 -1.5
    endloop
  endfacet
  facet normal -0 0 -1
    outer loop
      vertex -9.5 -5.5 -1.5
      vertex -12.817 -10.8318 -1.5
      vertex -11.2678 -4.76777 -1.5
    endloop
  endfacet
  facet normal 0 0 -1
    outer loop
      vertex 67.2678 73.7678 -1.5
      vertex 77.35 70.3549 -1.5
      vertex 68 72 -1.5
    endloop
  endfacet
  facet normal 0 0 -1
    outer loop
      vertex 77.35 70.3549 -1.5
      vertex 67.2678 73.7678 -1.5
      vertex 68.817 79.8318 -1.5
    endloop
  endfacet
  facet normal 0 0 -1
    outer loop
      vertex 65.5 74.5 -1.5
      vertex 68.817 79.8318 -1.5
      vertex 67.2678 73.7678 -1.5
    endloop
  endfacet
  facet normal 0 0 -1
    outer loop
      vertex 63.7322 73.7678 -1.5
      vertex 68.817 79.8318 -1.5
      vertex 65.5 74.5 -1.5
    endloop
  endfacet
  facet normal -0 0 -1
    outer loop
      vertex 63.7322 70.2322 -1.5
      vertex 61 59 -1.5
      vertex 63 72 -1.5
    endloop
  endfacet
  facet normal 0 0 -1
    outer loop
      vertex 63.7322 73.7678 -1.5
      vertex 58.5 87.3275 -1.5
      vertex 68.817 79.8318 -1.5
    endloop
  endfacet
  facet normal 0 0 -1
    outer loop
      vertex 63 72 -1.5
      vertex 58.5 87.3275 -1.5
      vertex 63.7322 73.7678 -1.5
    endloop
  endfacet
  facet normal 0 0 -1
    outer loop
      vertex 46.85 92.5145 -1.5
      vertex 63 72 -1.5
      vertex 61 59 -1.5
    endloop
  endfacet
  facet normal 0 0 -1
    outer loop
      vertex 63 72 -1.5
      vertex 46.85 92.5145 -1.5
      vertex 58.5 87.3275 -1.5
    endloop
  endfacet
  facet normal 0 0 -1
    outer loop
      vertex 61 59 -1.5
      vertex 34.3762 95.1658 -1.5
      vertex 46.85 92.5145 -1.5
    endloop
  endfacet
  facet normal 0 0 -1
    outer loop
      vertex 61 59 -1.5
      vertex 21.6238 95.1658 -1.5
      vertex 34.3762 95.1658 -1.5
    endloop
  endfacet
  facet normal 0 0 -1
    outer loop
      vertex -5 59 -1.5
      vertex 21.6238 95.1658 -1.5
      vertex 61 59 -1.5
    endloop
  endfacet
  facet normal 0 0 -1
    outer loop
      vertex 21.6238 95.1658 -1.5
      vertex -5 59 -1.5
      vertex 9.14996 92.5145 -1.5
    endloop
  endfacet
  facet normal 0 0 -1
    outer loop
      vertex -7 72 -1.5
      vertex 9.14996 92.5145 -1.5
      vertex -5 59 -1.5
    endloop
  endfacet
  facet normal 0 0 -1
    outer loop
      vertex -9.5 -0.5 -1.5
      vertex -5 10 -1.5
      vertex -7.73223 -1.23223 -1.5
    endloop
  endfacet
  facet normal 0 0 -1
    outer loop
      vertex 9.14996 92.5145 -1.5
      vertex -7 72 -1.5
      vertex -2.5 87.3275 -1.5
    endloop
  endfacet
  facet normal 0 0 -1
    outer loop
      vertex -7.73223 73.7678 -1.5
      vertex -2.5 87.3275 -1.5
      vertex -7 72 -1.5
    endloop
  endfacet
  facet normal 0 0 -1
    outer loop
      vertex -12.817 79.8318 -1.5
      vertex -7.73223 73.7678 -1.5
      vertex -9.5 74.5 -1.5
    endloop
  endfacet
  facet normal 0 0 -1
    outer loop
      vertex -12.817 79.8318 -1.5
      vertex -9.5 74.5 -1.5
      vertex -11.2678 73.7678 -1.5
    endloop
  endfacet
  facet normal 0 0 -1
    outer loop
      vertex -7.73223 73.7678 -1.5
      vertex -12.817 79.8318 -1.5
      vertex -2.5 87.3275 -1.5
    endloop
  endfacet
  facet normal 0 0 -1
    outer loop
      vertex -21.35 70.3549 -1.5
      vertex -11.2678 73.7678 -1.5
      vertex -12 72 -1.5
    endloop
  endfacet
  facet normal -0 0 -1
    outer loop
      vertex -11.2678 -1.23223 -1.5
      vertex -21.35 -1.3549 -1.5
      vertex -27.7263 9.68906 -1.5
    endloop
  endfacet
  facet normal -0 0 -1
    outer loop
      vertex -5 10 -1.5
      vertex -27.7263 9.68906 -1.5
      vertex -31.667 21.8174 -1.5
    endloop
  endfacet
  facet normal -0 0 -1
    outer loop
      vertex -11.2678 73.7678 -1.5
      vertex -21.35 70.3549 -1.5
      vertex -12.817 79.8318 -1.5
    endloop
  endfacet
  facet normal 0 0 -1
    outer loop
      vertex -5 10 -1.5
      vertex -33 34.5 -1.5
      vertex -5 59 -1.5
    endloop
  endfacet
  facet normal 0 0 -1
    outer loop
      vertex -11.2678 70.2322 -1.5
      vertex -21.35 70.3549 -1.5
      vertex -12 72 -1.5
    endloop
  endfacet
  facet normal 0 -0 -1
    outer loop
      vertex -11.2678 70.2322 -1.5
      vertex -5 59 -1.5
      vertex -27.7263 59.3109 -1.5
    endloop
  endfacet
  facet normal 0 -0 -1
    outer loop
      vertex -21.35 70.3549 -1.5
      vertex -11.2678 70.2322 -1.5
      vertex -27.7263 59.3109 -1.5
    endloop
  endfacet
  facet normal 0 0 -1
    outer loop
      vertex -5 59 -1.5
      vertex -11.2678 70.2322 -1.5
      vertex -9.5 69.5 -1.5
    endloop
  endfacet
  facet normal 0.923888 0.382663 0
    outer loop
      vertex -11.2678 70.2322 1.5
      vertex -12 72 -1.5
      vertex -12 72 1.5
    endloop
  endfacet
  facet normal 0.923888 0.382663 0
    outer loop
      vertex -12 72 -1.5
      vertex -11.2678 70.2322 1.5
      vertex -11.2678 70.2322 -1.5
    endloop
  endfacet
  facet normal -0.382668 0.923886 0
    outer loop
      vertex -7.73223 70.2322 -1.5
      vertex -9.5 69.5 1.5
      vertex -7.73223 70.2322 1.5
    endloop
  endfacet
  facet normal -0.382668 0.923886 0
    outer loop
      vertex -9.5 69.5 1.5
      vertex -7.73223 70.2322 -1.5
      vertex -9.5 69.5 -1.5
    endloop
  endfacet
  facet normal -0.923883 0.382676 0
    outer loop
      vertex -7.73223 70.2322 -1.5
      vertex -7 72 1.5
      vertex -7 72 -1.5
    endloop
  endfacet
  facet normal -0.923883 0.382676 0
    outer loop
      vertex -7 72 1.5
      vertex -7.73223 70.2322 -1.5
      vertex -7.73223 70.2322 1.5
    endloop
  endfacet
  facet normal 0.382663 0.923888 -0
    outer loop
      vertex -9.5 69.5 -1.5
      vertex -11.2678 70.2322 1.5
      vertex -9.5 69.5 1.5
    endloop
  endfacet
  facet normal 0.382663 0.923888 0
    outer loop
      vertex -11.2678 70.2322 1.5
      vertex -9.5 69.5 -1.5
      vertex -11.2678 70.2322 -1.5
    endloop
  endfacet
  facet normal 0.923886 0.382668 0
    outer loop
      vertex -11.2678 -4.76777 1.5
      vertex -12 -3 -1.5
      vertex -12 -3 1.5
    endloop
  endfacet
  facet normal 0.923886 0.382668 0
    outer loop
      vertex -12 -3 -1.5
      vertex -11.2678 -4.76777 1.5
      vertex -11.2678 -4.76777 -1.5
    endloop
  endfacet
  facet normal -0.382682 -0.92388 0
    outer loop
      vertex -9.5 -0.5 -1.5
      vertex -7.73223 -1.23223 1.5
      vertex -9.5 -0.5 1.5
    endloop
  endfacet
  facet normal -0.382682 -0.92388 -0
    outer loop
      vertex -7.73223 -1.23223 1.5
      vertex -9.5 -0.5 -1.5
      vertex -7.73223 -1.23223 -1.5
    endloop
  endfacet
  facet normal -0.382682 0.92388 0
    outer loop
      vertex -7.73223 -4.76777 -1.5
      vertex -9.5 -5.5 1.5
      vertex -7.73223 -4.76777 1.5
    endloop
  endfacet
  facet normal -0.382682 0.92388 0
    outer loop
      vertex -9.5 -5.5 1.5
      vertex -7.73223 -4.76777 -1.5
      vertex -9.5 -5.5 -1.5
    endloop
  endfacet
  facet normal -0.92388 0.382682 0
    outer loop
      vertex -7.73223 -4.76777 -1.5
      vertex -7 -3 1.5
      vertex -7 -3 -1.5
    endloop
  endfacet
  facet normal -0.92388 0.382682 0
    outer loop
      vertex -7 -3 1.5
      vertex -7.73223 -4.76777 -1.5
      vertex -7.73223 -4.76777 1.5
    endloop
  endfacet
  facet normal 0.382676 -0.923883 0
    outer loop
      vertex -11.2678 -1.23223 -1.5
      vertex -9.5 -0.5 1.5
      vertex -11.2678 -1.23223 1.5
    endloop
  endfacet
  facet normal 0.382676 -0.923883 0
    outer loop
      vertex -9.5 -0.5 1.5
      vertex -11.2678 -1.23223 -1.5
      vertex -9.5 -0.5 -1.5
    endloop
  endfacet
  facet normal 0.923886 -0.382668 0
    outer loop
      vertex -12 -3 1.5
      vertex -11.2678 -1.23223 -1.5
      vertex -11.2678 -1.23223 1.5
    endloop
  endfacet
  facet normal 0.923886 -0.382668 0
    outer loop
      vertex -11.2678 -1.23223 -1.5
      vertex -12 -3 1.5
      vertex -12 -3 -1.5
    endloop
  endfacet
  facet normal 0.382676 0.923883 -0
    outer loop
      vertex -9.5 -5.5 -1.5
      vertex -11.2678 -4.76777 1.5
      vertex -9.5 -5.5 1.5
    endloop
  endfacet
  facet normal 0.382676 0.923883 0
    outer loop
      vertex -11.2678 -4.76777 1.5
      vertex -9.5 -5.5 -1.5
      vertex -11.2678 -4.76777 -1.5
    endloop
  endfacet
  facet normal -0.92388 -0.382682 0
    outer loop
      vertex -7 -3 -1.5
      vertex -7.73223 -1.23223 1.5
      vertex -7.73223 -1.23223 -1.5
    endloop
  endfacet
  facet normal -0.92388 -0.382682 0
    outer loop
      vertex -7.73223 -1.23223 1.5
      vertex -7 -3 -1.5
      vertex -7 -3 1.5
    endloop
  endfacet
  facet normal -0.923888 -0.382663 0
    outer loop
      vertex 68 72 -1.5
      vertex 67.2678 73.7678 1.5
      vertex 67.2678 73.7678 -1.5
    endloop
  endfacet
  facet normal -0.923888 -0.382663 0
    outer loop
      vertex 67.2678 73.7678 1.5
      vertex 68 72 -1.5
      vertex 68 72 1.5
    endloop
  endfacet
  facet normal 0.382663 -0.923888 0
    outer loop
      vertex 63.7322 73.7678 -1.5
      vertex 65.5 74.5 1.5
      vertex 63.7322 73.7678 1.5
    endloop
  endfacet
  facet normal 0.382663 -0.923888 0
    outer loop
      vertex 65.5 74.5 1.5
      vertex 63.7322 73.7678 -1.5
      vertex 65.5 74.5 -1.5
    endloop
  endfacet
  facet normal -0.382663 -0.923888 0
    outer loop
      vertex 65.5 74.5 -1.5
      vertex 67.2678 73.7678 1.5
      vertex 65.5 74.5 1.5
    endloop
  endfacet
  facet normal -0.382663 -0.923888 -0
    outer loop
      vertex 67.2678 73.7678 1.5
      vertex 65.5 74.5 -1.5
      vertex 67.2678 73.7678 -1.5
    endloop
  endfacet
  facet normal 0.923888 -0.382663 0
    outer loop
      vertex 63 72 1.5
      vertex 63.7322 73.7678 -1.5
      vertex 63.7322 73.7678 1.5
    endloop
  endfacet
  facet normal 0.923888 -0.382663 0
    outer loop
      vertex 63.7322 73.7678 -1.5
      vertex 63 72 1.5
      vertex 63 72 -1.5
    endloop
  endfacet
  facet normal -0.923888 0.382663 0
    outer loop
      vertex 67.2678 70.2322 -1.5
      vertex 68 72 1.5
      vertex 68 72 -1.5
    endloop
  endfacet
  facet normal -0.923888 0.382663 0
    outer loop
      vertex 68 72 1.5
      vertex 67.2678 70.2322 -1.5
      vertex 67.2678 70.2322 1.5
    endloop
  endfacet
  facet normal 0.382663 0.923888 -0
    outer loop
      vertex 65.5 69.5 -1.5
      vertex 63.7322 70.2322 1.5
      vertex 65.5 69.5 1.5
    endloop
  endfacet
  facet normal 0.382663 0.923888 0
    outer loop
      vertex 63.7322 70.2322 1.5
      vertex 65.5 69.5 -1.5
      vertex 63.7322 70.2322 -1.5
    endloop
  endfacet
  facet normal 0.923888 0.382663 0
    outer loop
      vertex 63.7322 70.2322 1.5
      vertex 63 72 -1.5
      vertex 63 72 1.5
    endloop
  endfacet
  facet normal 0.923888 0.382663 0
    outer loop
      vertex 63 72 -1.5
      vertex 63.7322 70.2322 1.5
      vertex 63.7322 70.2322 -1.5
    endloop
  endfacet
  facet normal -0.382663 0.923888 0
    outer loop
      vertex 67.2678 70.2322 -1.5
      vertex 65.5 69.5 1.5
      vertex 67.2678 70.2322 1.5
    endloop
  endfacet
  facet normal -0.382663 0.923888 0
    outer loop
      vertex 65.5 69.5 1.5
      vertex 67.2678 70.2322 -1.5
      vertex 65.5 69.5 -1.5
    endloop
  endfacet
  facet normal -0.923886 0.382668 0
    outer loop
      vertex 67.2678 -4.76777 -1.5
      vertex 68 -3 1.5
      vertex 68 -3 -1.5
    endloop
  endfacet
  facet normal -0.923886 0.382668 0
    outer loop
      vertex 68 -3 1.5
      vertex 67.2678 -4.76777 -1.5
      vertex 67.2678 -4.76777 1.5
    endloop
  endfacet
  facet normal 0.382676 -0.923883 0
    outer loop
      vertex 63.7322 -1.23223 -1.5
      vertex 65.5 -0.5 1.5
      vertex 63.7322 -1.23223 1.5
    endloop
  endfacet
  facet normal 0.382676 -0.923883 0
    outer loop
      vertex 65.5 -0.5 1.5
      vertex 63.7322 -1.23223 -1.5
      vertex 65.5 -0.5 -1.5
    endloop
  endfacet
  facet normal 0.382676 0.923883 -0
    outer loop
      vertex 65.5 -5.5 -1.5
      vertex 63.7322 -4.76777 1.5
      vertex 65.5 -5.5 1.5
    endloop
  endfacet
  facet normal 0.382676 0.923883 0
    outer loop
      vertex 63.7322 -4.76777 1.5
      vertex 65.5 -5.5 -1.5
      vertex 63.7322 -4.76777 -1.5
    endloop
  endfacet
  facet normal 0.923886 0.382668 0
    outer loop
      vertex 63.7322 -4.76777 1.5
      vertex 63 -3 -1.5
      vertex 63 -3 1.5
    endloop
  endfacet
  facet normal 0.923886 0.382668 0
    outer loop
      vertex 63 -3 -1.5
      vertex 63.7322 -4.76777 1.5
      vertex 63.7322 -4.76777 -1.5
    endloop
  endfacet
  facet normal -0.382676 -0.923883 0
    outer loop
      vertex 65.5 -0.5 -1.5
      vertex 67.2678 -1.23223 1.5
      vertex 65.5 -0.5 1.5
    endloop
  endfacet
  facet normal -0.382676 -0.923883 -0
    outer loop
      vertex 67.2678 -1.23223 1.5
      vertex 65.5 -0.5 -1.5
      vertex 67.2678 -1.23223 -1.5
    endloop
  endfacet
  facet normal -0.923886 -0.382668 0
    outer loop
      vertex 68 -3 -1.5
      vertex 67.2678 -1.23223 1.5
      vertex 67.2678 -1.23223 -1.5
    endloop
  endfacet
  facet normal -0.923886 -0.382668 0
    outer loop
      vertex 67.2678 -1.23223 1.5
      vertex 68 -3 -1.5
      vertex 68 -3 1.5
    endloop
  endfacet
  facet normal -0.382676 0.923883 0
    outer loop
      vertex 67.2678 -4.76777 -1.5
      vertex 65.5 -5.5 1.5
      vertex 67.2678 -4.76777 1.5
    endloop
  endfacet
  facet normal -0.382676 0.923883 0
    outer loop
      vertex 65.5 -5.5 1.5
      vertex 67.2678 -4.76777 -1.5
      vertex 65.5 -5.5 -1.5
    endloop
  endfacet
  facet normal 0.923886 -0.382668 0
    outer loop
      vertex 63 -3 1.5
      vertex 63.7322 -1.23223 -1.5
      vertex 63.7322 -1.23223 1.5
    endloop
  endfacet
  facet normal 0.923886 -0.382668 0
    outer loop
      vertex 63.7322 -1.23223 -1.5
      vertex 63 -3 1.5
      vertex 63 -3 -1.5
    endloop
  endfacet
  facet normal 0.994522 0.104529 0
    outer loop
      vertex 89 34.5 1.5
      vertex 87.667 47.1826 -1.5
      vertex 87.667 47.1826 1.5
    endloop
  endfacet
  facet normal 0.994522 0.104529 0
    outer loop
      vertex 87.667 47.1826 -1.5
      vertex 89 34.5 1.5
      vertex 89 34.5 -1.5
    endloop
  endfacet
  facet normal 0 1 -0
    outer loop
      vertex 34.3762 95.1658 -1.5
      vertex 21.6238 95.1658 1.5
      vertex 34.3762 95.1658 1.5
    endloop
  endfacet
  facet normal 0 1 0
    outer loop
      vertex 21.6238 95.1658 1.5
      vertex 34.3762 95.1658 -1.5
      vertex 21.6238 95.1658 -1.5
    endloop
  endfacet
  facet normal 0 -1 0
    outer loop
      vertex 21.6238 -26.1658 -1.5
      vertex 34.3762 -26.1658 1.5
      vertex 21.6238 -26.1658 1.5
    endloop
  endfacet
  facet normal 0 -1 -0
    outer loop
      vertex 34.3762 -26.1658 1.5
      vertex 21.6238 -26.1658 -1.5
      vertex 34.3762 -26.1658 -1.5
    endloop
  endfacet
  facet normal -0.587783 -0.809018 0
    outer loop
      vertex -12.817 -10.8318 -1.5
      vertex -2.5 -18.3275 1.5
      vertex -12.817 -10.8318 1.5
    endloop
  endfacet
  facet normal -0.587783 -0.809018 -0
    outer loop
      vertex -2.5 -18.3275 1.5
      vertex -12.817 -10.8318 -1.5
      vertex -2.5 -18.3275 -1.5
    endloop
  endfacet
  facet normal 0.587783 0.809018 -0
    outer loop
      vertex 68.817 79.8318 -1.5
      vertex 58.5 87.3275 1.5
      vertex 68.817 79.8318 1.5
    endloop
  endfacet
  facet normal 0.587783 0.809018 0
    outer loop
      vertex 58.5 87.3275 1.5
      vertex 68.817 79.8318 -1.5
      vertex 58.5 87.3275 -1.5
    endloop
  endfacet
  facet normal 0.406742 0.913543 -0
    outer loop
      vertex 58.5 87.3275 -1.5
      vertex 46.85 92.5145 1.5
      vertex 58.5 87.3275 1.5
    endloop
  endfacet
  facet normal 0.406742 0.913543 0
    outer loop
      vertex 46.85 92.5145 1.5
      vertex 58.5 87.3275 -1.5
      vertex 46.85 92.5145 -1.5
    endloop
  endfacet
  facet normal -0.743146 0.669129 0
    outer loop
      vertex -21.35 70.3549 -1.5
      vertex -12.817 79.8318 1.5
      vertex -12.817 79.8318 -1.5
    endloop
  endfacet
  facet normal -0.743146 0.669129 0
    outer loop
      vertex -12.817 79.8318 1.5
      vertex -21.35 70.3549 -1.5
      vertex -21.35 70.3549 1.5
    endloop
  endfacet
  facet normal -0.406743 0.913542 0
    outer loop
      vertex 9.14996 92.5145 -1.5
      vertex -2.5 87.3275 1.5
      vertex 9.14996 92.5145 1.5
    endloop
  endfacet
  facet normal -0.406743 0.913542 0
    outer loop
      vertex -2.5 87.3275 1.5
      vertex 9.14996 92.5145 -1.5
      vertex -2.5 87.3275 -1.5
    endloop
  endfacet
  facet normal 0.866023 -0.500004 0
    outer loop
      vertex 77.35 -1.3549 1.5
      vertex 83.7263 9.68906 -1.5
      vertex 83.7263 9.68906 1.5
    endloop
  endfacet
  facet normal 0.866023 -0.500004 0
    outer loop
      vertex 83.7263 9.68906 -1.5
      vertex 77.35 -1.3549 1.5
      vertex 77.35 -1.3549 -1.5
    endloop
  endfacet
  facet normal -0.406737 -0.913545 0
    outer loop
      vertex -2.5 -18.3275 -1.5
      vertex 9.14996 -23.5144 1.5
      vertex -2.5 -18.3275 1.5
    endloop
  endfacet
  facet normal -0.406737 -0.913545 -0
    outer loop
      vertex 9.14996 -23.5144 1.5
      vertex -2.5 -18.3275 -1.5
      vertex 9.14996 -23.5144 -1.5
    endloop
  endfacet
  facet normal 0.866024 0.500003 0
    outer loop
      vertex 83.7263 59.3109 1.5
      vertex 77.35 70.3549 -1.5
      vertex 77.35 70.3549 1.5
    endloop
  endfacet
  facet normal 0.866024 0.500003 0
    outer loop
      vertex 77.35 70.3549 -1.5
      vertex 83.7263 59.3109 1.5
      vertex 83.7263 59.3109 -1.5
    endloop
  endfacet
  facet normal 0.951057 0.309015 0
    outer loop
      vertex 87.667 47.1826 1.5
      vertex 83.7263 59.3109 -1.5
      vertex 83.7263 59.3109 1.5
    endloop
  endfacet
  facet normal 0.951057 0.309015 0
    outer loop
      vertex 83.7263 59.3109 -1.5
      vertex 87.667 47.1826 1.5
      vertex 87.667 47.1826 -1.5
    endloop
  endfacet
  facet normal 0.743146 0.669129 0
    outer loop
      vertex 77.35 70.3549 1.5
      vertex 68.817 79.8318 -1.5
      vertex 68.817 79.8318 1.5
    endloop
  endfacet
  facet normal 0.743146 0.669129 0
    outer loop
      vertex 68.817 79.8318 -1.5
      vertex 77.35 70.3549 1.5
      vertex 77.35 70.3549 -1.5
    endloop
  endfacet
  facet normal 0.207905 0.978149 -0
    outer loop
      vertex 46.85 92.5145 -1.5
      vertex 34.3762 95.1658 1.5
      vertex 46.85 92.5145 1.5
    endloop
  endfacet
  facet normal 0.207905 0.978149 0
    outer loop
      vertex 34.3762 95.1658 1.5
      vertex 46.85 92.5145 -1.5
      vertex 34.3762 95.1658 -1.5
    endloop
  endfacet
  facet normal -0.951057 0.309015 0
    outer loop
      vertex -31.667 47.1826 -1.5
      vertex -27.7263 59.3109 1.5
      vertex -27.7263 59.3109 -1.5
    endloop
  endfacet
  facet normal -0.951057 0.309015 0
    outer loop
      vertex -27.7263 59.3109 1.5
      vertex -31.667 47.1826 -1.5
      vertex -31.667 47.1826 1.5
    endloop
  endfacet
  facet normal -0.866024 0.500003 0
    outer loop
      vertex -27.7263 59.3109 -1.5
      vertex -21.35 70.3549 1.5
      vertex -21.35 70.3549 -1.5
    endloop
  endfacet
  facet normal -0.866024 0.500003 0
    outer loop
      vertex -21.35 70.3549 1.5
      vertex -27.7263 59.3109 -1.5
      vertex -27.7263 59.3109 1.5
    endloop
  endfacet
  facet normal -0.994522 0.104529 0
    outer loop
      vertex -33 34.5 -1.5
      vertex -31.667 47.1826 1.5
      vertex -31.667 47.1826 -1.5
    endloop
  endfacet
  facet normal -0.994522 0.104529 0
    outer loop
      vertex -31.667 47.1826 1.5
      vertex -33 34.5 -1.5
      vertex -33 34.5 1.5
    endloop
  endfacet
  facet normal -0.587783 0.809018 0
    outer loop
      vertex -2.5 87.3275 -1.5
      vertex -12.817 79.8318 1.5
      vertex -2.5 87.3275 1.5
    endloop
  endfacet
  facet normal -0.587783 0.809018 0
    outer loop
      vertex -12.817 79.8318 1.5
      vertex -2.5 87.3275 -1.5
      vertex -12.817 79.8318 -1.5
    endloop
  endfacet
  facet normal -0.207904 0.978149 0
    outer loop
      vertex 21.6238 95.1658 -1.5
      vertex 9.14996 92.5145 1.5
      vertex 21.6238 95.1658 1.5
    endloop
  endfacet
  facet normal -0.207904 0.978149 0
    outer loop
      vertex 9.14996 92.5145 1.5
      vertex 21.6238 95.1658 -1.5
      vertex 9.14996 92.5145 -1.5
    endloop
  endfacet
  facet normal 0.207913 -0.978147 0
    outer loop
      vertex 34.3762 -26.1658 -1.5
      vertex 46.85 -23.5144 1.5
      vertex 34.3762 -26.1658 1.5
    endloop
  endfacet
  facet normal 0.207913 -0.978147 0
    outer loop
      vertex 46.85 -23.5144 1.5
      vertex 34.3762 -26.1658 -1.5
      vertex 46.85 -23.5144 -1.5
    endloop
  endfacet
  facet normal 0.587783 -0.809018 0
    outer loop
      vertex 58.5 -18.3275 -1.5
      vertex 68.817 -10.8318 1.5
      vertex 58.5 -18.3275 1.5
    endloop
  endfacet
  facet normal 0.587783 -0.809018 0
    outer loop
      vertex 68.817 -10.8318 1.5
      vertex 58.5 -18.3275 -1.5
      vertex 68.817 -10.8318 -1.5
    endloop
  endfacet
  facet normal -0.207912 -0.978148 0
    outer loop
      vertex 9.14996 -23.5144 -1.5
      vertex 21.6238 -26.1658 1.5
      vertex 9.14996 -23.5144 1.5
    endloop
  endfacet
  facet normal -0.207912 -0.978148 -0
    outer loop
      vertex 21.6238 -26.1658 1.5
      vertex 9.14996 -23.5144 -1.5
      vertex 21.6238 -26.1658 -1.5
    endloop
  endfacet
  facet normal -0.743146 -0.669129 0
    outer loop
      vertex -12.817 -10.8318 -1.5
      vertex -21.35 -1.3549 1.5
      vertex -21.35 -1.3549 -1.5
    endloop
  endfacet
  facet normal -0.743146 -0.669129 0
    outer loop
      vertex -21.35 -1.3549 1.5
      vertex -12.817 -10.8318 -1.5
      vertex -12.817 -10.8318 1.5
    endloop
  endfacet
  facet normal -0.951057 -0.309014 0
    outer loop
      vertex -27.7263 9.68906 -1.5
      vertex -31.667 21.8174 1.5
      vertex -31.667 21.8174 -1.5
    endloop
  endfacet
  facet normal -0.951057 -0.309014 0
    outer loop
      vertex -31.667 21.8174 1.5
      vertex -27.7263 9.68906 -1.5
      vertex -27.7263 9.68906 1.5
    endloop
  endfacet
  facet normal -0.994522 -0.104529 0
    outer loop
      vertex -31.667 21.8174 -1.5
      vertex -33 34.5 1.5
      vertex -33 34.5 -1.5
    endloop
  endfacet
  facet normal -0.994522 -0.104529 0
    outer loop
      vertex -33 34.5 1.5
      vertex -31.667 21.8174 -1.5
      vertex -31.667 21.8174 1.5
    endloop
  endfacet
  facet normal 0.406736 -0.913546 0
    outer loop
      vertex 46.85 -23.5144 -1.5
      vertex 58.5 -18.3275 1.5
      vertex 46.85 -23.5144 1.5
    endloop
  endfacet
  facet normal 0.406736 -0.913546 0
    outer loop
      vertex 58.5 -18.3275 1.5
      vertex 46.85 -23.5144 -1.5
      vertex 58.5 -18.3275 -1.5
    endloop
  endfacet
  facet normal 0.743146 -0.669129 0
    outer loop
      vertex 68.817 -10.8318 1.5
      vertex 77.35 -1.3549 -1.5
      vertex 77.35 -1.3549 1.5
    endloop
  endfacet
  facet normal 0.743146 -0.669129 0
    outer loop
      vertex 77.35 -1.3549 -1.5
      vertex 68.817 -10.8318 1.5
      vertex 68.817 -10.8318 -1.5
    endloop
  endfacet
  facet normal 0.951057 -0.309014 0
    outer loop
      vertex 83.7263 9.68906 1.5
      vertex 87.667 21.8174 -1.5
      vertex 87.667 21.8174 1.5
    endloop
  endfacet
  facet normal 0.951057 -0.309014 0
    outer loop
      vertex 87.667 21.8174 -1.5
      vertex 83.7263 9.68906 1.5
      vertex 83.7263 9.68906 -1.5
    endloop
  endfacet
  facet normal 0.994522 -0.104529 0
    outer loop
      vertex 87.667 21.8174 1.5
      vertex 89 34.5 -1.5
      vertex 89 34.5 1.5
    endloop
  endfacet
  facet normal 0.994522 -0.104529 0
    outer loop
      vertex 89 34.5 -1.5
      vertex 87.667 21.8174 1.5
      vertex 87.667 21.8174 -1.5
    endloop
  endfacet
  facet normal -0.866023 -0.500004 0
    outer loop
      vertex -21.35 -1.3549 -1.5
      vertex -27.7263 9.68906 1.5
      vertex -27.7263 9.68906 -1.5
    endloop
  endfacet
  facet normal -0.866023 -0.500004 0
    outer loop
      vertex -27.7263 9.68906 1.5
      vertex -21.35 -1.3549 -1.5
      vertex -21.35 -1.3549 1.5
    endloop
  endfacet
  facet normal 1 -0 0
    outer loop
      vertex -5 10 1.5
      vertex -5 59 -1.5
      vertex -5 59 1.5
    endloop
  endfacet
  facet normal 1 0 0
    outer loop
      vertex -5 59 -1.5
      vertex -5 10 1.5
      vertex -5 10 -1.5
    endloop
  endfacet
  facet normal -1 0 0
    outer loop
      vertex 61 10 -1.5
      vertex 61 59 1.5
      vertex 61 59 -1.5
    endloop
  endfacet
  facet normal -1 -0 0
    outer loop
      vertex 61 59 1.5
      vertex 61 10 -1.5
      vertex 61 10 1.5
    endloop
  endfacet
  facet normal 0 -1 0
    outer loop
      vertex -5 59 -1.5
      vertex 61 59 1.5
      vertex -5 59 1.5
    endloop
  endfacet
  facet normal 0 -1 -0
    outer loop
      vertex 61 59 1.5
      vertex -5 59 -1.5
      vertex 61 59 -1.5
    endloop
  endfacet
  facet normal 0 1 -0
    outer loop
      vertex 61 10 -1.5
      vertex -5 10 1.5
      vertex 61 10 1.5
    endloop
  endfacet
  facet normal 0 1 0
    outer loop
      vertex -5 10 1.5
      vertex 61 10 -1.5
      vertex -5 10 -1.5
    endloop
  endfacet
  facet normal 1 -0 0
    outer loop
      vertex 7 0 17
      vertex 7 3 8
      vertex 7 3 17
    endloop
  endfacet
  facet normal 1 0 0
    outer loop
      vertex 7 3 8
      vertex 7 0 17
      vertex 7 0 8
    endloop
  endfacet
  facet normal 0 0 -1
    outer loop
      vertex 7 0 17
      vertex 25 3 17
      vertex 25 0 17
    endloop
  endfacet
  facet normal -0 0 -1
    outer loop
      vertex 25 3 17
      vertex 7 0 17
      vertex 7 3 17
    endloop
  endfacet
  facet normal -1 0 0
    outer loop
      vertex 25 0 8
      vertex 25 3 17
      vertex 25 3 8
    endloop
  endfacet
  facet normal -1 -0 0
    outer loop
      vertex 25 3 17
      vertex 25 0 8
      vertex 25 0 17
    endloop
  endfacet
  facet normal -0 0 1
    outer loop
      vertex 7 3 8
      vertex 25 0 8
      vertex 25 3 8
    endloop
  endfacet
  facet normal 0 0 1
    outer loop
      vertex 25 0 8
      vertex 7 3 8
      vertex 7 0 8
    endloop
  endfacet
  facet normal 1 -0 0
    outer loop
      vertex 32 0 17
      vertex 32 3 8
      vertex 32 3 17
    endloop
  endfacet
  facet normal 1 0 0
    outer loop
      vertex 32 3 8
      vertex 32 0 17
      vertex 32 0 8
    endloop
  endfacet
  facet normal 0 0 -1
    outer loop
      vertex 32 0 17
      vertex 42 3 17
      vertex 42 0 17
    endloop
  endfacet
  facet normal -0 0 -1
    outer loop
      vertex 42 3 17
      vertex 32 0 17
      vertex 32 3 17
    endloop
  endfacet
  facet normal -1 0 0
    outer loop
      vertex 42 0 8
      vertex 42 3 17
      vertex 42 3 8
    endloop
  endfacet
  facet normal -1 -0 0
    outer loop
      vertex 42 3 17
      vertex 42 0 8
      vertex 42 0 17
    endloop
  endfacet
  facet normal -0 0 1
    outer loop
      vertex 32 3 8
      vertex 42 0 8
      vertex 42 3 8
    endloop
  endfacet
  facet normal 0 0 1
    outer loop
      vertex 42 0 8
      vertex 32 3 8
      vertex 32 0 8
    endloop
  endfacet
  facet normal 0 -0.707107 0.707107
    outer loop
      vertex 0 -3.5 1.5
      vertex 56 0 5
      vertex 0 0 5
    endloop
  endfacet
  facet normal 0 -0.707107 0.707107
    outer loop
      vertex 56 0 5
      vertex 0 -3.5 1.5
      vertex 56 -3.5 1.5
    endloop
  endfacet
  facet normal 0 0.707107 0.707107
    outer loop
      vertex 56 72.5 1.5
      vertex 0 69 5
      vertex 56 69 5
    endloop
  endfacet
  facet normal 0 0.707107 0.707107
    outer loop
      vertex 0 69 5
      vertex 56 72.5 1.5
      vertex 0 72.5 1.5
    endloop
  endfacet
endsolid OpenSCAD_Model
