<?xml version="1.0" encoding="UTF-8" standalone="no"?>
<svg
   xmlns:dc="http://purl.org/dc/elements/1.1/"
   xmlns:cc="http://creativecommons.org/ns#"
   xmlns:rdf="http://www.w3.org/1999/02/22-rdf-syntax-ns#"
   xmlns:svg="http://www.w3.org/2000/svg"
   xmlns="http://www.w3.org/2000/svg"
   xmlns:sodipodi="http://sodipodi.sourceforge.net/DTD/sodipodi-0.dtd"
   xmlns:inkscape="http://www.inkscape.org/namespaces/inkscape"
   version="1.1"
   width="252"
   height="144"
   id="svg676"
   viewBox="0 0 252 144"
   sodipodi:docname="spirobizcard.cdr.svg"
   inkscape:version="0.92.1 r15371">
  <metadata
     id="metadata682">
    <rdf:RDF>
      <cc:Work
         rdf:about="">
        <dc:format>image/svg+xml</dc:format>
        <dc:type
           rdf:resource="http://purl.org/dc/dcmitype/StillImage" />
        <dc:title></dc:title>
      </cc:Work>
    </rdf:RDF>
  </metadata>
  <defs
     id="defs680" />
  <sodipodi:namedview
     pagecolor="#ffffff"
     bordercolor="#666666"
     borderopacity="1"
     objecttolerance="10"
     gridtolerance="10"
     guidetolerance="10"
     inkscape:pageopacity="0"
     inkscape:pageshadow="2"
     inkscape:window-width="1280"
     inkscape:window-height="960"
     id="namedview678"
     showgrid="false"
     inkscape:zoom="3.1707566"
     inkscape:cx="31.275395"
     inkscape:cy="34.266199"
     inkscape:window-x="0"
     inkscape:window-y="36"
     inkscape:window-maximized="1"
     inkscape:current-layer="svg676" />
  <g
     id="Layer1008"
     style="fill:#ff0000;fill-opacity:1;stroke:none;stroke-width:0.5;stroke-miterlimit:4;stroke-dasharray:none;stroke-opacity:1"
     transform="translate(245.30973,115.9646)">
    <path
       d="m 126.3682,70.1668 1.461,0.7078 1.4474,0.8598 v 0.5309 l -1.4474,0.8595 -1.461,0.7081 -0.0382,0.6673 1.3702,0.8702 1.3402,1.019 -0.0601,0.5273 -1.5358,0.6894 -1.5324,0.5369 -0.1139,0.6584 1.2622,1.0208 1.215,1.1656 -0.1199,0.5168 -1.6044,0.5091 -1.5832,0.3594 -0.1882,0.6412 1.1378,1.158 1.0738,1.296 -0.1778,0.4994 -1.652,0.3232 -1.614,0.1763 -0.2603,0.6157 0.9981,1.2804 0.9196,1.4099 -0.2339,0.4762 -1.6787,0.133 -1.6228,-0.0091 -0.3285,0.582 0.8453,1.3858 0.7528,1.5061 -0.2865,0.4456 -1.6821,-0.0593 -1.6118,-0.1936 -0.3932,0.5409 0.6826,1.4729 0.576,1.5817 -0.3353,0.4105 -1.6648,-0.2506 -1.5795,-0.3765 -0.4515,0.4927 0.5099,1.5412 0.3923,1.6373 -0.3804,0.3696 -1.6259,-0.4393 -1.5256,-0.5537 -0.5054,0.4383 0.3316,1.5891 0.2024,1.671 -0.4201,0.324 -1.5644,-0.6216 -1.4528,-0.724 -0.5519,0.3773 0.1477,1.6172 0.0113,1.6829 -0.4538,0.2744 -1.4842,-0.7957 -1.3606,-0.885 -0.5911,0.3113 -0.0382,1.6231 -0.18,1.6738 -0.4828,0.2206 -1.383,-0.9601 -1.2512,-1.0341 -0.6231,0.2429 -0.2219,1.6081 -0.3708,1.6424 -0.5046,0.1636 -1.2645,-1.1109 -1.1251,-1.1707 -0.6463,0.1703 -0.4045,1.5718 -0.555,1.5903 -0.5196,0.1049 -1.1302,-1.2481 -0.9847,-1.2906 -0.6616,0.0952 -0.5806,1.5157 -0.7327,1.5157 -0.5278,0.045 -0.9811,-1.3688 -0.8303,-1.3941 -0.6684,0.0187 -0.7497,1.44 -0.9009,1.4227 -0.5303,-0.015 -0.8176,-1.4723 -0.6667,-1.4797 -0.6658,-0.057 -0.9091,1.3448 -1.0568,1.3102 -0.5249,-0.0749 -0.6452,-1.5556 -0.4932,-1.5463 -0.6548,-0.133 -1.0568,1.2322 -1.1993,1.1821 -0.5131,-0.1349 -0.4635,-1.6186 -0.3135,-1.5928 -0.6358,-0.2064 -1.1902,1.1041 -1.3261,1.0364 -0.4944,-0.1919 -0.2758,-1.6614 -0.1306,-1.6178 -0.6075,-0.2775 -1.3079,0.961 -1.4363,0.8796 -0.4689,-0.2475 -0.0847,-1.6815 0.0547,-1.6231 -0.5721,-0.345 -1.4093,0.8065 -1.5271,0.7095 -0.4371,-0.2994 0.1072,-1.6806 0.2392,-1.605 -0.5286,-0.4082 -1.4925,0.6398 -1.5976,0.5309 -0.4005,-0.3472 0.2985,-1.6574 0.4206,-1.5676 -0.479,-0.4657 -1.5557,0.4657 -1.6478,0.3458 -0.3583,-0.3909 0.4853,-1.6123 0.597,-1.5098 -0.4232,-0.5176 -1.5982,0.2858 -1.6761,0.1553 -0.3121,-0.4289 0.6659,-1.5466 0.7659,-1.4317 -0.3614,-0.5619 -1.62,0.1012 -1.6838,-0.0365 -0.2602,-0.4621 0.8376,-1.4601 0.9232,-1.3351 -0.2948,-0.6001 -1.6214,-0.0839 -1.6679,-0.2279 -0.2063,-0.489 0.9983,-1.3555 1.0701,-1.2209 -0.2251,-0.6293 -1.601,-0.2684 -1.6305,-0.417 -0.1502,-0.5094 1.1469,-1.2322 1.2022,-1.0911 -0.1514,-0.6511 -1.5602,-0.4493 -1.5727,-0.5998 -0.0907,-0.523 1.2796,-1.0933 1.3184,-0.9474 -0.0757,-0.6644 -1.4987,-0.6239 -1.4947,-0.7756 -0.03,-0.5295 1.3958,-0.9405 1.4184,-0.7906 v -0.669 l -1.4184,-0.7906 -1.3958,-0.9402 0.03,-0.5295 1.4947,-0.7756 1.4987,-0.6242 0.0757,-0.6644 -1.3184,-0.9471 -1.2796,-1.0936 0.0907,-0.5227 1.5727,-0.6001 1.5602,-0.4493 0.1514,-0.6508 -1.2022,-1.0913 -1.1469,-1.2323 0.1502,-0.5093 1.6305,-0.417 1.601,-0.2685 0.2251,-0.6293 -1.0701,-1.2208 -0.9983,-1.3553 0.2063,-0.489 1.6679,-0.2281 1.6214,-0.0839 0.2948,-0.6001 -0.9232,-1.3349 -0.8376,-1.4604 0.2602,-0.462 1.6838,-0.0366 1.62,0.1012 0.3614,-0.5618 -0.7659,-1.4318 -0.6659,-1.5463 0.3121,-0.4292 1.6761,0.1554 1.5982,0.2857 0.4232,-0.5176 -0.597,-1.5097 -0.4853,-1.6124 0.3583,-0.3909 1.6478,0.3458 1.5557,0.4658 0.479,-0.4658 -0.4206,-1.5675 -0.2985,-1.6574 0.4005,-0.3473 1.5976,0.5309 1.4925,0.6398 0.5286,-0.4079 -0.2392,-1.605 -0.1072,-1.6809 0.4371,-0.2991 1.5271,0.7096 1.4093,0.8061 0.5721,-0.3449 -0.0547,-1.6232 0.0847,-1.6815 0.4689,-0.2474 1.4363,0.8798 1.3079,0.9607 0.6075,-0.2775 0.1306,-1.6177 0.2758,-1.6614 0.4944,-0.1919 1.3261,1.0366 1.1902,1.1038 0.6358,-0.2061 0.3135,-1.593 0.4635,-1.6186 0.5131,-0.135 1.1993,1.1821 1.0568,1.2322 0.6548,-0.1327 0.4932,-1.5465 0.6452,-1.5554 0.5249,-0.0751 1.0568,1.3101 0.9091,1.3448 0.6658,-0.057 0.6667,-1.4797 0.8176,-1.4723 0.5303,-0.015 0.9009,1.4227 0.7497,1.44 0.6684,0.0187 0.8303,-1.3941 0.9811,-1.3688 0.5278,0.0451 0.7327,1.5156 0.5806,1.5157 0.6616,0.0953 0.9847,-1.2906 1.1302,-1.2481 0.5196,0.1051 0.555,1.59 0.4045,1.5721 0.6463,0.1701 1.1251,-1.1707 1.2645,-1.1107 0.5046,0.1633 0.3708,1.6427 0.2219,1.6078 0.6231,0.2432 1.2512,-1.0343 1.383,-0.9601 0.4828,0.2205 0.18,1.6741 0.0382,1.6229 0.5911,0.3112 1.3606,-0.885 1.4842,-0.7956 0.4538,0.2743 -0.0113,1.6833 -0.1477,1.6168 0.5519,0.3773 1.4528,-0.7237 1.5644,-0.6219 0.4201,0.324 -0.2024,1.671 -0.3316,1.5894 0.5054,0.438 1.5256,-0.5536 1.6259,-0.4394 0.3804,0.3696 -0.3923,1.6373 -0.5099,1.5412 0.4515,0.493 1.5795,-0.3767 1.6648,-0.2503 0.3353,0.4101 -0.576,1.5818 -0.6826,1.4728 0.3932,0.5409 1.6118,-0.1936 1.6821,-0.0593 0.2865,0.4457 -0.7528,1.506 -0.8453,1.3859 0.3285,0.5822 1.6228,-0.0091 1.6787,0.1327 0.2339,0.4762 -0.9196,1.41 -0.9981,1.2804 0.2603,0.6157 1.614,0.1763 1.652,0.3231 0.1778,0.4995 -1.0738,1.296 -1.1378,1.1579 0.1882,0.6415 1.5832,0.3592 1.6044,0.5091 0.1199,0.5167 -1.215,1.1656 -1.2622,1.0208 0.1139,0.6585 1.5324,0.5371 1.5358,0.6891 0.0601,0.5273 -1.3402,1.0193 -1.3702,0.87 z"
       style="fill:#ff0000;fill-opacity:1;stroke:none;stroke-width:0.5;stroke-linecap:butt;stroke-linejoin:miter;stroke-miterlimit:4;stroke-dasharray:none;stroke-opacity:1"
       id="path604"
       inkscape:connector-curvature="0" />
  </g>
  <path
     d="M 0,0 V 144 H 252 V 0 Z"
     style="fill:#ff0000;fill-opacity:1;fill-rule:evenodd;stroke:none;stroke-width:0.5;stroke-linecap:butt;stroke-linejoin:miter;stroke-miterlimit:4;stroke-dasharray:none;stroke-opacity:1"
     id="path674"
     inkscape:connector-curvature="0" />
  <g
     id="Layer1005"
     style="fill:none;fill-opacity:1;stroke:#000000;stroke-width:0.5;stroke-miterlimit:4;stroke-dasharray:none;stroke-opacity:1">
    <g
       id="Layer1006"
       style="fill:none;fill-opacity:1;stroke:#000000;stroke-width:0.5;stroke-miterlimit:4;stroke-dasharray:none;stroke-opacity:1" />
  </g>
  <path
     d="m 334.06273,188.5502 a 2.88,2.88 0 0 1 2.88,2.88 2.88,2.88 0 1 1 -2.88,-2.88 z"
     style="fill:#ffffff;fill-opacity:1;stroke:none;stroke-width:0.5;stroke-linecap:butt;stroke-linejoin:miter;stroke-miterlimit:4;stroke-dasharray:none;stroke-opacity:1"
     id="path607"
     inkscape:connector-curvature="0" />
  <path
     d="m 326.09433,202.1441 a 2.88,2.88 0 0 1 2.88,2.88 2.88,2.88 0 1 1 -2.88,-2.88 z"
     style="fill:#ffffff;fill-opacity:1;stroke:none;stroke-width:0.5;stroke-linecap:butt;stroke-linejoin:miter;stroke-miterlimit:4;stroke-dasharray:none;stroke-opacity:1"
     id="path609"
     inkscape:connector-curvature="0" />
  <path
     d="m 316.12603,201.0289 a 2.88,2.88 0 0 1 2.88,2.88 2.88,2.88 0 1 1 -2.88,-2.88 z"
     style="fill:#ffffff;fill-opacity:1;stroke:none;stroke-width:0.5;stroke-linecap:butt;stroke-linejoin:miter;stroke-miterlimit:4;stroke-dasharray:none;stroke-opacity:1"
     id="path611"
     inkscape:connector-curvature="0" />
  <path
     d="m 308.09823,193.1228 a 2.88,2.88 0 0 1 2.88,2.88 2.88,2.88 0 1 1 -2.88,-2.88 z"
     style="fill:#ffffff;fill-opacity:1;stroke:none;stroke-width:0.5;stroke-linecap:butt;stroke-linejoin:miter;stroke-miterlimit:4;stroke-dasharray:none;stroke-opacity:1"
     id="path613"
     inkscape:connector-curvature="0" />
  <path
     d="m 306.14203,179.3816 a 2.88,2.88 0 0 1 2.88,2.88 2.88,2.88 0 1 1 -2.88,-2.88 z"
     style="fill:#ffffff;fill-opacity:1;stroke:none;stroke-width:0.5;stroke-linecap:butt;stroke-linejoin:miter;stroke-miterlimit:4;stroke-dasharray:none;stroke-opacity:1"
     id="path615"
     inkscape:connector-curvature="0" />
  <path
     d="m 313.77633,166.5378 a 2.88,2.88 0 0 1 2.88,2.88 2.88,2.88 0 1 1 -2.88,-2.88 z"
     style="fill:#ffffff;fill-opacity:1;stroke:none;stroke-width:0.5;stroke-linecap:butt;stroke-linejoin:miter;stroke-miterlimit:4;stroke-dasharray:none;stroke-opacity:1"
     id="path617"
     inkscape:connector-curvature="0" />
  <path
     d="m 333.35183,197.076 a 2.88,2.88 0 0 1 2.88,2.88 2.88,2.88 0 1 1 -2.88,-2.88 z"
     style="fill:#ffffff;fill-opacity:1;stroke:none;stroke-width:0.5;stroke-linecap:butt;stroke-linejoin:miter;stroke-miterlimit:4;stroke-dasharray:none;stroke-opacity:1"
     id="path619"
     inkscape:connector-curvature="0" />
  <path
     d="m 325.87513,160.4198 a 2.88,2.88 0 0 1 2.88,2.88 2.88,2.88 0 1 1 -2.88,-2.88 z"
     style="fill:#ffffff;fill-opacity:1;stroke:none;stroke-width:0.5;stroke-linecap:butt;stroke-linejoin:miter;stroke-miterlimit:4;stroke-dasharray:none;stroke-opacity:1"
     id="path621"
     inkscape:connector-curvature="0" />
  <path
     d="m 338.29463,160.663 a 2.88,2.88 0 0 1 2.88,2.88 2.88,2.88 0 1 1 -2.88,-2.88 z"
     style="fill:#ffffff;fill-opacity:1;stroke:none;stroke-width:0.5;stroke-linecap:butt;stroke-linejoin:miter;stroke-miterlimit:4;stroke-dasharray:none;stroke-opacity:1"
     id="path623"
     inkscape:connector-curvature="0" />
  <path
     d="m 347.63113,164.8347 a 2.88,2.88 0 0 1 2.88,2.88 2.88,2.88 0 1 1 -2.88,-2.88 z"
     style="fill:#ffffff;fill-opacity:1;stroke:none;stroke-width:0.5;stroke-linecap:butt;stroke-linejoin:miter;stroke-miterlimit:4;stroke-dasharray:none;stroke-opacity:1"
     id="path625"
     inkscape:connector-curvature="0" />
  <path
     d="m 356.02223,173.0651 a 2.88,2.88 0 0 1 2.88,2.88 2.88,2.88 0 1 1 -2.88,-2.88 z"
     style="fill:#ffffff;fill-opacity:1;stroke:none;stroke-width:0.5;stroke-linecap:butt;stroke-linejoin:miter;stroke-miterlimit:4;stroke-dasharray:none;stroke-opacity:1"
     id="path627"
     inkscape:connector-curvature="0" />
  <path
     d="m 360.75233,182.6196 a 2.88,2.88 0 0 1 2.88,2.88 2.88,2.88 0 1 1 -2.88,-2.88 z"
     style="fill:#ffffff;fill-opacity:1;stroke:none;stroke-width:0.5;stroke-linecap:butt;stroke-linejoin:miter;stroke-miterlimit:4;stroke-dasharray:none;stroke-opacity:1"
     id="path629"
     inkscape:connector-curvature="0" />
  <path
     d="m 362.15923,195.1303 a 2.88,2.88 0 0 1 2.88,2.88 2.88,2.88 0 1 1 -2.88,-2.88 z"
     style="fill:#ffffff;fill-opacity:1;stroke:none;stroke-width:0.5;stroke-linecap:butt;stroke-linejoin:miter;stroke-miterlimit:4;stroke-dasharray:none;stroke-opacity:1"
     id="path631"
     inkscape:connector-curvature="0" />
  <g
     transform="translate(124.6397,-0.80046003)"
     id="Layer1009-3"
     style="fill:#ff0000;fill-opacity:1;stroke:none;stroke-width:0.5;stroke-miterlimit:4;stroke-dasharray:none;stroke-opacity:1">
    <path
       d="m 192.2539,101.7726 1.48,0.5887 1.4624,0.8887 v 0.4708 l -1.4624,0.889 -1.48,0.5887 -0.0839,0.7433 1.3119,0.9028 1.2285,1.192 -0.1052,0.4595 -1.6237,0.5408 -1.5735,0.2446 -0.2469,0.7056 1.0778,1.1724 0.9323,1.4355 -0.2047,0.4243 -1.7033,0.1667 -1.5886,-0.1117 -0.3982,0.633 0.79,1.383 0.5893,1.6064 -0.2939,0.3682 -1.6974,-0.2168 -1.5239,-0.4627 -0.5287,0.5287 0.4626,1.5242 0.2169,1.6971 -0.3682,0.294 -1.6067,-0.5894 -1.3828,-0.7897 -0.6332,0.3983 0.1119,1.5882 -0.1666,1.7034 -0.4244,0.2046 -1.4354,-0.932 -1.1725,-1.0777 -0.7058,0.2466 -0.2443,1.5735 -0.5409,1.6237 -0.4598,0.1051 -1.1916,-1.2285 -0.9029,-1.3119 -0.7432,0.0842 -0.5888,1.4797 -0.8889,1.4624 h -0.4709 l -0.8889,-1.4624 -0.5888,-1.4797 -0.7432,-0.0842 -0.9028,1.3119 -1.1917,1.2285 -0.4598,-0.1051 -0.5408,-1.6237 -0.2447,-1.5735 -0.7055,-0.2466 -1.1724,1.0777 -1.4355,0.932 -0.4243,-0.2046 -0.1667,-1.7034 0.1117,-1.5882 -0.633,-0.3983 -1.383,0.7897 -1.6064,0.5894 -0.3682,-0.294 0.2168,-1.6971 0.4626,-1.5242 -0.5286,-0.5287 -1.5242,0.4627 -1.6971,0.2168 -0.294,-0.3682 0.5893,-1.6064 0.7898,-1.383 -0.398,-0.633 -1.5886,0.1117 -1.7033,-0.1667 -0.2047,-0.4243 0.9321,-1.4355 1.078,-1.1724 -0.2469,-0.7056 -1.5735,-0.2446 -1.6237,-0.5408 -0.1052,-0.4595 1.2286,-1.192 1.3118,-0.9028 -0.0839,-0.7433 -1.4799,-0.5887 -1.4624,-0.889 V 103.25 l 1.4624,-0.8887 1.4799,-0.5887 0.0839,-0.7433 -1.3118,-0.9031 -1.2286,-1.1917 0.1052,-0.4598 1.6237,-0.5408 1.5735,-0.2444 0.2469,-0.7058 -1.078,-1.1724 -0.9321,-1.4355 0.2047,-0.4243 1.7033,-0.1667 1.5886,0.112 0.398,-0.633 -0.7898,-1.383 -0.5893,-1.6067 0.294,-0.3682 1.6971,0.2168 1.5242,0.4627 0.5286,-0.5287 -0.4626,-1.5239 -0.2168,-1.6974 0.3682,-0.294 1.6064,0.5897 1.383,0.7897 0.633,-0.3983 -0.1117,-1.5885 0.1667,-1.7034 0.4243,-0.2046 1.4355,0.9323 1.1724,1.0777 0.7055,-0.2469 0.2447,-1.5735 0.5408,-1.6237 0.4598,-0.1048 1.1917,1.2282 0.9028,1.3119 0.7432,-0.0839 0.5888,-1.48 0.8889,-1.4624 h 0.4709 l 0.8889,1.4624 0.5888,1.48 0.7432,0.0839 0.9029,-1.3119 1.1916,-1.2282 0.4598,0.1048 0.5409,1.6237 0.2443,1.5735 0.7058,0.2469 1.1725,-1.0777 1.4354,-0.9323 0.4244,0.2046 0.1666,1.7034 -0.1119,1.5885 0.6332,0.3983 1.3828,-0.7897 1.6067,-0.5897 0.3682,0.294 -0.2169,1.6974 -0.4626,1.5239 0.5287,0.5287 1.5239,-0.4627 1.6974,-0.2168 0.2939,0.3682 -0.5893,1.6067 -0.79,1.383 0.3982,0.633 1.5886,-0.112 1.7033,0.1667 0.2047,0.4243 -0.9323,1.4355 -1.0778,1.1724 0.2469,0.7058 1.5735,0.2444 1.6237,0.5408 0.1052,0.4598 -1.2285,1.1917 -1.3119,0.9031 z"
       style="fill:#ff0000;fill-opacity:1;stroke:none;stroke-width:0.5;stroke-linecap:butt;stroke-linejoin:miter;stroke-miterlimit:4;stroke-dasharray:none;stroke-opacity:1"
       id="path657-6"
       inkscape:connector-curvature="0" />
  </g>
  <path
     d="m 300.5496,101.25984 a 2.88,2.88 0 0 1 2.88,2.88 2.88,2.88 0 1 1 -2.88,-2.88 z"
     style="fill:#ffffff;fill-opacity:1;stroke:none;stroke-width:0.5;stroke-linecap:butt;stroke-linejoin:miter;stroke-miterlimit:4;stroke-dasharray:none;stroke-opacity:1"
     id="path660-7"
     inkscape:connector-curvature="0" />
  <path
     d="m 291.492,103.18884 a 2.88,2.88 0 0 1 2.88,2.88 2.88,2.88 0 1 1 -2.88,-2.88 z"
     style="fill:#ffffff;fill-opacity:1;stroke:none;stroke-width:0.5;stroke-linecap:butt;stroke-linejoin:miter;stroke-miterlimit:4;stroke-dasharray:none;stroke-opacity:1"
     id="path662-5"
     inkscape:connector-curvature="0" />
  <path
     d="m 288.5021,94.21094 a 2.88,2.88 0 0 1 2.88,2.88 2.88,2.88 0 1 1 -2.88,-2.88 z"
     style="fill:#ffffff;fill-opacity:1;stroke:none;stroke-width:0.5;stroke-linecap:butt;stroke-linejoin:miter;stroke-miterlimit:4;stroke-dasharray:none;stroke-opacity:1"
     id="path664-3"
     inkscape:connector-curvature="0" />
  <path
     d="m 296.9456,86.64444 a 2.88,2.88 0 0 1 2.88,2.88 2.88,2.88 0 1 1 -2.88,-2.88 z"
     style="fill:#ffffff;fill-opacity:1;stroke:none;stroke-width:0.5;stroke-linecap:butt;stroke-linejoin:miter;stroke-miterlimit:4;stroke-dasharray:none;stroke-opacity:1"
     id="path666-5"
     inkscape:connector-curvature="0" />
  <path
     d="m 308.2125,90.63644 a 2.88,2.88 0 0 1 2.88,2.88 2.88,2.88 0 1 1 -2.88,-2.88 z"
     style="fill:#ffffff;fill-opacity:1;stroke:none;stroke-width:0.5;stroke-linecap:butt;stroke-linejoin:miter;stroke-miterlimit:4;stroke-dasharray:none;stroke-opacity:1"
     id="path668-6"
     inkscape:connector-curvature="0" />
  <path
     d="m 311.6455,102.70864 a 2.88,2.88 0 0 1 2.88,2.88 2.88,2.88 0 1 1 -2.88,-2.88 z"
     style="fill:#ffffff;fill-opacity:1;stroke:none;stroke-width:0.5;stroke-linecap:butt;stroke-linejoin:miter;stroke-miterlimit:4;stroke-dasharray:none;stroke-opacity:1"
     id="path670-2"
     inkscape:connector-curvature="0" />
  <path
     d="m 305.9731,112.09384 a 2.88,2.88 0 0 1 2.88,2.88 2.88,2.88 0 1 1 -2.88,-2.88 z"
     style="fill:#ffffff;fill-opacity:1;stroke:none;stroke-width:0.5;stroke-linecap:butt;stroke-linejoin:miter;stroke-miterlimit:4;stroke-dasharray:none;stroke-opacity:1"
     id="path672-9"
     inkscape:connector-curvature="0" />
  <path
     d="m 296.29608,12.076189 1.4904,0.4419 1.4806,0.9187 v 0.4094 l -1.4806,0.919 -1.4904,0.4416 -0.1491,0.8467 1.2495,0.9247 1.0763,1.3697 -0.1397,0.3846 -1.7054,0.3569 -1.5516,-0.0944 -0.4298,0.7441 0.8578,1.2966 0.5431,1.6554 -0.2625,0.3135 -1.7249,-0.2474 -1.4258,-0.6197 -0.6585,0.5519 0.3629,1.512 -0.0562,1.7416 -0.354,0.2041 -1.5361,-0.822 -1.1279,-1.0704 -0.807,0.2939 -0.1764,1.5452 -0.648,1.6169 -0.4025,0.0714 -1.1625,-1.2982 -0.6939,-1.3913 h -0.8595 l -0.6936,1.3913 -1.1625,1.2982 -0.4028,-0.0714 -0.648,-1.6169 -0.1763,-1.5452 -0.807,-0.2939 -1.1279,1.0704 -1.5361,0.822 -0.3541,-0.2041 -0.0561,-1.7416 0.3628,-1.512 -0.6584,-0.5519 -1.4256,0.6197 -1.7252,0.2474 -0.2624,-0.3135 0.5431,-1.6554 0.858,-1.2966 -0.4297,-0.7441 -1.552,0.0944 -1.7053,-0.3569 -0.1395,-0.3846 1.0761,-1.3697 1.2495,-0.9247 -0.1491,-0.8467 -1.4905,-0.4416 -1.4802,-0.919 v -0.4094 l 1.4802,-0.9187 1.4905,-0.4419 0.1491,-0.8467 -1.2495,-0.9247 -1.0761,-1.3693996 0.1395,-0.3849 1.7053,-0.3569 1.552,0.0944 0.4297,-0.7438 -0.858,-1.2969 -0.5431,-1.6551 0.2624,-0.3135 1.7252,0.2474 1.4256,0.6194 0.6584,-0.5519 -0.3628,-1.512 0.0561,-1.7416 0.3541,-0.2038 1.5361,0.8217 1.1279,1.0704 0.807,-0.294 0.1763,-1.5451 0.648,-1.6169 0.4028,-0.0711 1.1625,1.2982 0.6936,1.3913 h 0.8595 l 0.6939,-1.3913 1.1625,-1.2982 0.4025,0.0711 0.648,1.6169 0.1764,1.5451 0.807,0.294 1.1279,-1.0704 1.5361,-0.8217 0.354,0.2038 0.0562,1.7416 -0.3629,1.512 0.6585,0.5519 1.4258,-0.6194 1.7249,-0.2474 0.2625,0.3135 -0.5431,1.6551 -0.8578,1.2969 0.4298,0.7438 1.5516,-0.0944 1.7054,0.3569 0.1397,0.3849 -1.0763,1.3693996 -1.2495,0.9247 z"
     style="fill:#ff0000;fill-opacity:1;stroke:none;stroke-width:0.5;stroke-linecap:butt;stroke-linejoin:miter;stroke-miterlimit:4;stroke-dasharray:none;stroke-opacity:1"
     id="path50-1"
     inkscape:connector-curvature="0" />
  <g
     transform="translate(124.03068,-15.443111)"
     id="Layer1000-2"
     style="fill:#fbf8f8;fill-opacity:1;stroke:none;stroke-width:0.5;stroke-miterlimit:4;stroke-dasharray:none;stroke-opacity:1">
    <path
       d="m 160.0889,30.2394 a 2.88,2.88 0 0 1 2.88,2.88 2.88,2.88 0 1 1 -2.88,-2.88 z"
       style="fill:#fbf8f8;fill-opacity:1;stroke:none;stroke-width:0.5;stroke-linecap:butt;stroke-linejoin:miter;stroke-miterlimit:4;stroke-dasharray:none;stroke-opacity:1"
       id="path52-7"
       inkscape:connector-curvature="0" />
    <path
       d="m 157.3588,22.1173 a 2.88,2.88 0 0 1 2.88,2.88 2.88,2.88 0 1 1 -2.88,-2.88 z"
       style="fill:#fbf8f8;fill-opacity:1;stroke:none;stroke-width:0.5;stroke-linecap:butt;stroke-linejoin:miter;stroke-miterlimit:4;stroke-dasharray:none;stroke-opacity:1"
       id="path54-0"
       inkscape:connector-curvature="0" />
    <path
       d="m 167.476,24.5395 a 2.88,2.88 0 0 1 2.88,2.88 2.88,2.88 0 1 1 -2.88,-2.88 z"
       style="fill:#fbf8f8;fill-opacity:1;stroke:none;stroke-width:0.5;stroke-linecap:butt;stroke-linejoin:miter;stroke-miterlimit:4;stroke-dasharray:none;stroke-opacity:1"
       id="path56-9"
       inkscape:connector-curvature="0" />
  </g>
  <g
     transform="translate(124.03068,-15.443111)"
     id="Layer1004-6"
     style="fill:#ff0000;fill-opacity:1;stroke:none;stroke-width:0.5;stroke-miterlimit:4;stroke-dasharray:none;stroke-opacity:1">
    <path
       d="m 244.0466,50.6367 1.464,0.6908 1.4497,0.8646 v 0.5204 l -1.4497,0.8649 -1.464,0.6908 -0.0443,0.678 1.3612,0.8759 1.3247,1.0454 -0.0684,0.5176 -1.5502,0.6676 -1.5412,0.4935 -0.1327,0.6667 1.2351,1.0454 1.1769,1.2107 -0.1352,0.5032 -1.6237,0.4597 -1.5931,0.288 -0.2179,0.6435 1.0882,1.1985 1.0086,1.353 -0.1996,0.4816 -1.6702,0.2438 -1.6169,0.0779 -0.3007,0.6097 0.9224,1.3298 0.8234,1.4737 -0.2602,0.4516 -1.6874,0.0232 -1.6132,-0.1344 -0.3782,0.5656 0.741,1.4391 0.6242,1.5684 -0.3172,0.4133 -1.6764,-0.1973 -1.5818,-0.3427 -0.4484,0.5108 0.5474,1.5239 0.4141,1.6356 -0.3691,0.3691 -1.6355,-0.4139 -1.5242,-0.5476 -0.5108,0.4484 0.343,1.5817 0.197,1.6764 -0.413,0.3172 -1.5685,-0.6239 -1.4391,-0.7409 -0.5655,0.3778 0.1341,1.6132 -0.0233,1.6875 -0.4513,0.2605 -1.4737,-0.8238 -1.33,-0.9224 -0.6097,0.3008 -0.078,1.6169 -0.2438,1.6704 -0.4813,0.1996 -1.353,-1.0089 -1.1985,-1.0882 -0.6437,0.2183 -0.288,1.5928 -0.4595,1.6239 -0.5034,0.135 -1.2104,-1.1767 -1.0454,-1.2353 -0.667,0.1326 -0.4936,1.5412 -0.6672,1.5503 -0.5176,0.0683 -1.0455,-1.3243 -0.8761,-1.3615 -0.6778,0.0445 -0.6908,1.4638 -0.8649,1.4499 h -0.5204 l -0.8648,-1.4499 -0.6909,-1.4638 -0.6777,-0.0445 -0.8762,1.3615 -1.0454,1.3243 -0.5176,-0.0683 -0.6673,-1.5503 -0.4935,-1.5412 -0.667,-0.1326 -1.0454,1.2353 -1.2104,1.1767 -0.5035,-0.135 -0.4594,-1.6239 -0.288,-1.5928 -0.6438,-0.2183 -1.1985,1.0882 -1.353,1.0089 -0.4813,-0.1996 -0.2438,-1.6704 -0.0779,-1.6169 -0.6097,-0.3008 -1.3298,0.9224 -1.474,0.8238 -0.4513,-0.2605 -0.0232,-1.6875 0.1341,-1.6132 -0.5655,-0.3778 -1.4392,0.7409 -1.5684,0.6239 -0.413,-0.3172 0.197,-1.6764 0.343,-1.5817 -0.5108,-0.4484 -1.5242,0.5476 -1.6356,0.4139 -0.3691,-0.3691 0.4142,-1.6356 0.5473,-1.5239 -0.4484,-0.5108 -1.5817,0.3427 -1.6764,0.1973 -0.3172,-0.4133 0.6242,-1.5684 0.7409,-1.4391 -0.3781,-0.5656 -1.6132,0.1344 -1.6875,-0.0232 -0.2602,-0.4516 0.8235,-1.4737 0.9224,-1.3298 -0.3008,-0.6097 -1.6169,-0.0779 -1.6701,-0.2438 -0.1996,-0.4816 1.0086,-1.353 1.0885,-1.1985 -0.2183,-0.6435 -1.5931,-0.288 -1.6237,-0.4597 -0.1352,-0.5032 1.177,-1.2107 1.235,-1.0454 -0.1326,-0.6667 -1.5412,-0.4935 -1.5503,-0.6676 -0.0683,-0.5176 1.3246,-1.0454 1.3612,-0.8759 -0.0442,-0.678 -1.4641,-0.6908 -1.4496,-0.8649 v -0.5204 l 1.4496,-0.8646 1.4641,-0.6908 0.0442,-0.6781 -1.3612,-0.8759 -1.3246,-1.0457 0.0683,-0.5173 1.5503,-0.6675 1.5412,-0.4936 0.1326,-0.6667 -1.235,-1.0457 -1.177,-1.2104 0.1352,-0.5031 1.6237,-0.4598 1.5931,-0.288 0.2183,-0.6435 -1.0885,-1.1984 -1.0086,-1.353 0.1996,-0.4816 1.6701,-0.2438 1.6169,-0.078 0.3008,-0.6097 -0.9224,-1.3297 -0.8235,-1.4738 0.2602,-0.4515 1.6875,-0.0233 1.6132,0.1344 0.3781,-0.5655 -0.7409,-1.4394 -0.6242,-1.5682 0.3172,-0.4133 1.6764,0.1973 1.5817,0.3427 0.4484,-0.5108 -0.5473,-1.5239 -0.4142,-1.6358 0.3691,-0.3691 1.6356,0.4141 1.5242,0.5474 0.5108,-0.4484 -0.343,-1.5818 -0.197,-1.6761 0.413,-0.3172 1.5684,0.6239 1.4392,0.741 0.5655,-0.3782 -0.1341,-1.6131 0.0232,-1.6875 0.4513,-0.2602 1.474,0.8234 1.3298,0.9227 0.6097,-0.3007 0.0779,-1.6172 0.2438,-1.6702 0.4813,-0.1995 1.353,1.0088 1.1985,1.0882 0.6438,-0.2182 0.288,-1.5931 0.4594,-1.6237 0.5035,-0.1349 1.2104,1.1766 1.0454,1.2354 0.667,-0.133 0.4935,-1.5412 0.6673,-1.5502 0.5176,-0.0684 1.0454,1.3247 0.8762,1.3612 0.6777,-0.0442 0.6909,-1.4641 0.8648,-1.4497 h 0.5204 l 0.8649,1.4497 0.6908,1.4641 0.6778,0.0442 0.8761,-1.3612 1.0455,-1.3247 0.5176,0.0684 0.6672,1.5502 0.4936,1.5412 0.667,0.133 1.0454,-1.2354 1.2104,-1.1766 0.5034,0.1349 0.4595,1.6237 0.288,1.5931 0.6437,0.2182 1.1985,-1.0882 1.353,-1.0088 0.4813,0.1995 0.2438,1.6702 0.078,1.6172 0.6097,0.3007 1.33,-0.9227 1.4737,-0.8234 0.4513,0.2602 0.0233,1.6875 -0.1341,1.6131 0.5655,0.3782 1.4391,-0.741 1.5685,-0.6239 0.413,0.3172 -0.197,1.6761 -0.343,1.5818 0.5108,0.4484 1.5242,-0.5474 1.6355,-0.4141 0.3691,0.3691 -0.4141,1.6358 -0.5474,1.5239 0.4484,0.5108 1.5818,-0.3427 1.6764,-0.1973 0.3172,0.4133 -0.6242,1.5682 -0.741,1.4394 0.3782,0.5655 1.6132,-0.1344 1.6874,0.0233 0.2602,0.4515 -0.8234,1.4738 -0.9224,1.3297 0.3007,0.6097 1.6169,0.078 1.6702,0.2438 0.1996,0.4816 -1.0086,1.353 -1.0882,1.1984 0.2179,0.6435 1.5931,0.288 1.6237,0.4598 0.1352,0.5031 -1.1769,1.2104 -1.2351,1.0457 0.1327,0.6667 1.5412,0.4936 1.5502,0.6675 0.0684,0.5173 -1.3247,1.0457 -1.3612,0.8759 z"
       style="fill:#ff0000;fill-opacity:1;stroke:none;stroke-width:0.5;stroke-linecap:butt;stroke-linejoin:miter;stroke-miterlimit:4;stroke-dasharray:none;stroke-opacity:1"
       id="path596-0"
       inkscape:connector-curvature="0" />
  </g>
  <path
     d="m 343.11418,36.218289 a 2.88,2.88 0 0 1 2.88,2.88 2.88,2.88 0 1 1 -2.88,-2.88 z"
     style="fill:#ffffff;fill-opacity:1;stroke:none;stroke-width:0.5;stroke-linecap:butt;stroke-linejoin:miter;stroke-miterlimit:4;stroke-dasharray:none;stroke-opacity:1"
     id="path633-6"
     inkscape:connector-curvature="0" />
  <path
     d="m 337.15748,42.390489 a 2.88,2.88 0 0 1 2.88,2.88 2.88,2.88 0 1 1 -2.88,-2.88 z"
     style="fill:#ffffff;fill-opacity:1;stroke:none;stroke-width:0.5;stroke-linecap:butt;stroke-linejoin:miter;stroke-miterlimit:4;stroke-dasharray:none;stroke-opacity:1"
     id="path635-2"
     inkscape:connector-curvature="0" />
  <path
     d="m 327.85358,39.520689 a 2.88,2.88 0 0 1 2.88,2.88 2.88,2.88 0 1 1 -2.88,-2.88 z"
     style="fill:#ffffff;fill-opacity:1;stroke:none;stroke-width:0.5;stroke-linecap:butt;stroke-linejoin:miter;stroke-miterlimit:4;stroke-dasharray:none;stroke-opacity:1"
     id="path637-6"
     inkscape:connector-curvature="0" />
  <path
     d="m 326.36398,27.140589 a 2.88,2.88 0 0 1 2.88,2.88 2.88,2.88 0 1 1 -2.88,-2.88 z"
     style="fill:#ffffff;fill-opacity:1;stroke:none;stroke-width:0.5;stroke-linecap:butt;stroke-linejoin:miter;stroke-miterlimit:4;stroke-dasharray:none;stroke-opacity:1"
     id="path639-1"
     inkscape:connector-curvature="0" />
  <path
     d="m 336.60618,18.291489 a 2.88,2.88 0 0 1 2.88,2.88 2.88,2.88 0 1 1 -2.88,-2.88 z"
     style="fill:#ffffff;fill-opacity:1;stroke:none;stroke-width:0.5;stroke-linecap:butt;stroke-linejoin:miter;stroke-miterlimit:4;stroke-dasharray:none;stroke-opacity:1"
     id="path641-8"
     inkscape:connector-curvature="0" />
  <path
     d="m 348.94568,19.693789 a 2.88,2.88 0 0 1 2.88,2.88 2.88,2.88 0 1 1 -2.88,-2.88 z"
     style="fill:#ffffff;fill-opacity:1;stroke:none;stroke-width:0.5;stroke-linecap:butt;stroke-linejoin:miter;stroke-miterlimit:4;stroke-dasharray:none;stroke-opacity:1"
     id="path643-7"
     inkscape:connector-curvature="0" />
  <path
     d="m 358.04148,29.754789 a 2.88,2.88 0 0 1 2.88,2.88 2.88,2.88 0 1 1 -2.88,-2.88 z"
     style="fill:#ffffff;fill-opacity:1;stroke:none;stroke-width:0.5;stroke-linecap:butt;stroke-linejoin:miter;stroke-miterlimit:4;stroke-dasharray:none;stroke-opacity:1"
     id="path645-9"
     inkscape:connector-curvature="0" />
  <path
     d="m 358.85528,42.858989 a 2.88,2.88 0 0 1 2.88,2.88 2.88,2.88 0 1 1 -2.88,-2.88 z"
     style="fill:#ffffff;fill-opacity:1;stroke:none;stroke-width:0.5;stroke-linecap:butt;stroke-linejoin:miter;stroke-miterlimit:4;stroke-dasharray:none;stroke-opacity:1"
     id="path647-2"
     inkscape:connector-curvature="0" />
  <path
     d="m 352.79708,53.183389 a 2.88,2.88 0 0 1 2.88,2.88 2.88,2.88 0 1 1 -2.88,-2.88 z"
     style="fill:#ffffff;fill-opacity:1;stroke:none;stroke-width:0.5;stroke-linecap:butt;stroke-linejoin:miter;stroke-miterlimit:4;stroke-dasharray:none;stroke-opacity:1"
     id="path649-0"
     inkscape:connector-curvature="0" />
  <path
     d="m 341.79608,59.469189 a 2.88,2.88 0 0 1 2.88,2.88 2.88,2.88 0 1 1 -2.88,-2.88 z"
     style="fill:#ffffff;fill-opacity:1;stroke:none;stroke-width:0.5;stroke-linecap:butt;stroke-linejoin:miter;stroke-miterlimit:4;stroke-dasharray:none;stroke-opacity:1"
     id="path651-2"
     inkscape:connector-curvature="0" />
  <path
     d="m 327.78868,59.006286 a 2.88,2.88 0 0 1 2.88,2.880003 2.88,2.88 0 1 1 -2.88,-2.880003 z"
     style="fill:#ffffff;fill-opacity:1;stroke:none;stroke-width:0.5;stroke-linecap:butt;stroke-linejoin:miter;stroke-miterlimit:4;stroke-dasharray:none;stroke-opacity:1"
     id="path653-3"
     inkscape:connector-curvature="0" />
  <path
     d="m 315.81458,51.045189 a 2.88,2.88 0 0 1 2.88,2.88 2.88,2.88 0 1 1 -2.88,-2.88 z"
     style="fill:#ffffff;fill-opacity:1;stroke:none;stroke-width:0.5;stroke-linecap:butt;stroke-linejoin:miter;stroke-miterlimit:4;stroke-dasharray:none;stroke-opacity:1"
     id="path655-7"
     inkscape:connector-curvature="0" />
  <g
     id="Layer1004"
     style="fill:#ffffff;fill-opacity:1;fill-rule:evenodd;stroke:none;stroke-width:0.5;stroke-miterlimit:4;stroke-dasharray:none;stroke-opacity:1">
    <path
       d="m 244.0466,50.6367 1.464,0.6908 1.4497,0.8646 v 0.5204 l -1.4497,0.8649 -1.464,0.6908 -0.0443,0.678 1.3612,0.8759 1.3247,1.0454 -0.0684,0.5176 -1.5502,0.6676 -1.5412,0.4935 -0.1327,0.6667 1.2351,1.0454 1.1769,1.2107 -0.1352,0.5032 -1.6237,0.4597 -1.5931,0.288 -0.2179,0.6435 1.0882,1.1985 1.0086,1.353 -0.1996,0.4816 -1.6702,0.2438 -1.6169,0.0779 -0.3007,0.6097 0.9224,1.3298 0.8234,1.4737 -0.2602,0.4516 -1.6874,0.0232 -1.6132,-0.1344 -0.3782,0.5656 0.741,1.4391 0.6242,1.5684 -0.3172,0.4133 -1.6764,-0.1973 -1.5818,-0.3427 -0.4484,0.5108 0.5474,1.5239 0.4141,1.6356 -0.3691,0.3691 -1.6355,-0.4139 -1.5242,-0.5476 -0.5108,0.4484 0.343,1.5817 0.197,1.6764 -0.413,0.3172 -1.5685,-0.6239 -1.4391,-0.7409 -0.5655,0.3778 0.1341,1.6132 -0.0233,1.6875 -0.4513,0.2605 -1.4737,-0.8238 -1.33,-0.9224 -0.6097,0.3008 -0.078,1.6169 -0.2438,1.6704 -0.4813,0.1996 -1.353,-1.0089 -1.1985,-1.0882 -0.6437,0.2183 -0.288,1.5928 -0.4595,1.6239 -0.5034,0.135 -1.2104,-1.1767 -1.0454,-1.2353 -0.667,0.1326 -0.4936,1.5412 -0.6672,1.5503 -0.5176,0.0683 -1.0455,-1.3243 -0.8761,-1.3615 -0.6778,0.0445 -0.6908,1.4638 -0.8649,1.4499 h -0.5204 l -0.8648,-1.4499 -0.6909,-1.4638 -0.6777,-0.0445 -0.8762,1.3615 -1.0454,1.3243 -0.5176,-0.0683 -0.6673,-1.5503 -0.4935,-1.5412 -0.667,-0.1326 -1.0454,1.2353 -1.2104,1.1767 -0.5035,-0.135 -0.4594,-1.6239 -0.288,-1.5928 -0.6438,-0.2183 -1.1985,1.0882 -1.353,1.0089 -0.4813,-0.1996 -0.2438,-1.6704 -0.0779,-1.6169 -0.6097,-0.3008 -1.3298,0.9224 -1.474,0.8238 -0.4513,-0.2605 -0.0232,-1.6875 0.1341,-1.6132 -0.5655,-0.3778 -1.4392,0.7409 -1.5684,0.6239 -0.413,-0.3172 0.197,-1.6764 0.343,-1.5817 -0.5108,-0.4484 -1.5242,0.5476 -1.6356,0.4139 -0.3691,-0.3691 0.4142,-1.6356 0.5473,-1.5239 -0.4484,-0.5108 -1.5817,0.3427 -1.6764,0.1973 -0.3172,-0.4133 0.6242,-1.5684 0.7409,-1.4391 -0.3781,-0.5656 -1.6132,0.1344 -1.6875,-0.0232 -0.2602,-0.4516 0.8235,-1.4737 0.9224,-1.3298 -0.3008,-0.6097 -1.6169,-0.0779 -1.6701,-0.2438 -0.1996,-0.4816 1.0086,-1.353 1.0885,-1.1985 -0.2183,-0.6435 -1.5931,-0.288 -1.6237,-0.4597 -0.1352,-0.5032 1.177,-1.2107 1.235,-1.0454 -0.1326,-0.6667 -1.5412,-0.4935 -1.5503,-0.6676 -0.0683,-0.5176 1.3246,-1.0454 1.3612,-0.8759 -0.0442,-0.678 -1.4641,-0.6908 -1.4496,-0.8649 v -0.5204 l 1.4496,-0.8646 1.4641,-0.6908 0.0442,-0.6781 -1.3612,-0.8759 -1.3246,-1.0457 0.0683,-0.5173 1.5503,-0.6675 1.5412,-0.4936 0.1326,-0.6667 -1.235,-1.0457 -1.177,-1.2104 0.1352,-0.5031 1.6237,-0.4598 1.5931,-0.288 0.2183,-0.6435 -1.0885,-1.1984 -1.0086,-1.353 0.1996,-0.4816 1.6701,-0.2438 1.6169,-0.078 0.3008,-0.6097 -0.9224,-1.3297 -0.8235,-1.4738 0.2602,-0.4515 1.6875,-0.0233 1.6132,0.1344 0.3781,-0.5655 -0.7409,-1.4394 -0.6242,-1.5682 0.3172,-0.4133 1.6764,0.1973 1.5817,0.3427 0.4484,-0.5108 -0.5473,-1.5239 -0.4142,-1.6358 0.3691,-0.3691 1.6356,0.4141 1.5242,0.5474 0.5108,-0.4484 -0.343,-1.5818 -0.197,-1.6761 0.413,-0.3172 1.5684,0.6239 1.4392,0.741 0.5655,-0.3782 -0.1341,-1.6131 0.0232,-1.6875 0.4513,-0.2602 1.474,0.8234 1.3298,0.9227 0.6097,-0.3007 0.0779,-1.6172 0.2438,-1.6702 0.4813,-0.1995 1.353,1.0088 1.1985,1.0882 0.6438,-0.2182 0.288,-1.5931 0.4594,-1.6237 0.5035,-0.1349 1.2104,1.1766 1.0454,1.2354 0.667,-0.133 0.4935,-1.5412 0.6673,-1.5502 0.5176,-0.0684 1.0454,1.3247 0.8762,1.3612 0.6777,-0.0442 0.6909,-1.4641 0.8648,-1.4497 h 0.5204 l 0.8649,1.4497 0.6908,1.4641 0.6778,0.0442 0.8761,-1.3612 1.0455,-1.3247 0.5176,0.0684 0.6672,1.5502 0.4936,1.5412 0.667,0.133 1.0454,-1.2354 1.2104,-1.1766 0.5034,0.1349 0.4595,1.6237 0.288,1.5931 0.6437,0.2182 1.1985,-1.0882 1.353,-1.0088 0.4813,0.1995 0.2438,1.6702 0.078,1.6172 0.6097,0.3007 1.33,-0.9227 1.4737,-0.8234 0.4513,0.2602 0.0233,1.6875 -0.1341,1.6131 0.5655,0.3782 1.4391,-0.741 1.5685,-0.6239 0.413,0.3172 -0.197,1.6761 -0.343,1.5818 0.5108,0.4484 1.5242,-0.5474 1.6355,-0.4141 0.3691,0.3691 -0.4141,1.6358 -0.5474,1.5239 0.4484,0.5108 1.5818,-0.3427 1.6764,-0.1973 0.3172,0.4133 -0.6242,1.5682 -0.741,1.4394 0.3782,0.5655 1.6132,-0.1344 1.6874,0.0233 0.2602,0.4515 -0.8234,1.4738 -0.9224,1.3297 0.3007,0.6097 1.6169,0.078 1.6702,0.2438 0.1996,0.4816 -1.0086,1.353 -1.0882,1.1984 0.2179,0.6435 1.5931,0.288 1.6237,0.4598 0.1352,0.5031 -1.1769,1.2104 -1.2351,1.0457 0.1327,0.6667 1.5412,0.4936 1.5502,0.6675 0.0684,0.5173 -1.3247,1.0457 -1.3612,0.8759 z"
       style="fill:#ffffff;fill-opacity:1;fill-rule:evenodd;stroke:none;stroke-width:0.5;stroke-linecap:butt;stroke-linejoin:miter;stroke-miterlimit:4;stroke-dasharray:none;stroke-opacity:1"
       id="path596"
       inkscape:connector-curvature="0" />
  </g>
  <path
     d="m 38.2326,30.1706 c -0.04,-0.008 -0.5681,-0.6801 -1.588,-2.0121 -1.0162,-1.3359 -2.9001,-2.2719 -5.6523,-2.808 0.3322,0.044 0.8722,-0.5598 1.62,-1.8039 0.752,-1.2399 0.932,-3.3322 0.5522,-6.2799 -0.04,-0.0082 -0.0842,-0.0241 -0.1321,-0.0321 -3.0881,0.0879 -4.936,0.9239 -5.5519,2.4999 -0.616,1.5801 -1.3842,1.7921 -2.312,0.6401 -0.928,-1.16 -2.1441,-1.8641 -3.6482,-2.1161 -1.4918,-0.2559 -2.26,-0.388 -2.3,-0.3999 -0.1959,3.124 0.1922,5.252 1.1642,6.3881 0.976,1.1359 1.5758,1.6759 1.8119,1.6319 -2.8199,0.6721 -4.612,1.7521 -5.368,3.2321 -0.756,1.476 -0.4921,2.556 0.792,3.2318 1.2839,0.676 2.6879,0.6721 4.216,-0.0159 1.508,-0.68 2.2961,-1.076 2.3599,-1.1801 -1.5798,2.9602 -1.4678,4.9842 0.3401,6.0721 1.8079,1.088 2.7079,1.652 2.6921,1.692 l 0.064,0.0119 c 2.4438,-2.232 3.4319,-4.0958 2.96,-5.5919 -0.472,-1.4921 0.0198,-2.08 1.476,-1.76 1.4558,0.324 3.6241,-0.144 6.5041,-1.4 z"
     style="fill:#ffffff;fill-opacity:1;fill-rule:evenodd;stroke:none;stroke-width:0.5;stroke-miterlimit:4;stroke-dasharray:none;stroke-opacity:1"
     id="path48"
     inkscape:connector-curvature="0" />
  <path
     d="m 172.2654,27.5193 1.4904,0.4419 1.4806,0.9187 v 0.4094 l -1.4806,0.919 -1.4904,0.4416 -0.1491,0.8467 1.2495,0.9247 1.0763,1.3697 -0.1397,0.3846 -1.7054,0.3569 -1.5516,-0.0944 -0.4298,0.7441 0.8578,1.2966 0.5431,1.6554 -0.2625,0.3135 -1.7249,-0.2474 -1.4258,-0.6197 -0.6585,0.5519 0.3629,1.512 -0.0562,1.7416 -0.354,0.2041 -1.5361,-0.822 -1.1279,-1.0704 -0.807,0.2939 -0.1764,1.5452 -0.648,1.6169 -0.4025,0.0714 -1.1625,-1.2982 -0.6939,-1.3913 h -0.8595 l -0.6936,1.3913 -1.1625,1.2982 -0.4028,-0.0714 -0.648,-1.6169 -0.1763,-1.5452 -0.807,-0.2939 -1.1279,1.0704 -1.5361,0.822 -0.3541,-0.2041 -0.0561,-1.7416 0.3628,-1.512 -0.6584,-0.5519 -1.4256,0.6197 -1.7252,0.2474 -0.2624,-0.3135 0.5431,-1.6554 0.858,-1.2966 -0.4297,-0.7441 -1.552,0.0944 -1.7053,-0.3569 -0.1395,-0.3846 1.0761,-1.3697 1.2495,-0.9247 -0.1491,-0.8467 -1.4905,-0.4416 -1.4802,-0.919 v -0.4094 l 1.4802,-0.9187 1.4905,-0.4419 0.1491,-0.8467 -1.2495,-0.9247 -1.0761,-1.3694 0.1395,-0.3849 1.7053,-0.3569 1.552,0.0944 0.4297,-0.7438 -0.858,-1.2969 -0.5431,-1.6551 0.2624,-0.3135 1.7252,0.2474 1.4256,0.6194 0.6584,-0.5519 -0.3628,-1.512 0.0561,-1.7416 0.3541,-0.2038 1.5361,0.8217 1.1279,1.0704 0.807,-0.294 0.1763,-1.5451 0.648,-1.6169 0.4028,-0.0711 1.1625,1.2982 0.6936,1.3913 h 0.8595 l 0.6939,-1.3913 1.1625,-1.2982 0.4025,0.0711 0.648,1.6169 0.1764,1.5451 0.807,0.294 1.1279,-1.0704 1.5361,-0.8217 0.354,0.2038 0.0562,1.7416 -0.3629,1.512 0.6585,0.5519 1.4258,-0.6194 1.7249,-0.2474 0.2625,0.3135 -0.5431,1.6551 -0.8578,1.2969 0.4298,0.7438 1.5516,-0.0944 1.7054,0.3569 0.1397,0.3849 -1.0763,1.3694 -1.2495,0.9247 z"
     style="fill:#ffffff;fill-opacity:1;fill-rule:evenodd;stroke:none;stroke-width:0.5;stroke-linecap:butt;stroke-linejoin:miter;stroke-miterlimit:4;stroke-dasharray:none;stroke-opacity:1"
     id="path50"
     inkscape:connector-curvature="0" />
  <path
     d="m 27.0777,103.7324 a 9,9 0 0 1 9,9 9,9 0 1 1 -9,-9 z"
     style="fill:#ffffff;fill-opacity:1;fill-rule:evenodd;stroke:none;stroke-width:0.5;stroke-linecap:butt;stroke-linejoin:miter;stroke-miterlimit:4;stroke-dasharray:none;stroke-opacity:1"
     id="path59"
     inkscape:connector-curvature="0" />
  <path
     d="m 211.2418,98.8758 v 18 h 18 v -18 z"
     style="fill:#ffffff;fill-opacity:1;fill-rule:evenodd;stroke:none;stroke-width:0.5;stroke-linecap:butt;stroke-linejoin:miter;stroke-miterlimit:4;stroke-dasharray:none;stroke-opacity:1"
     id="path61"
     inkscape:connector-curvature="0" />
  <path
     d="m 161.8761,55.0885 4.5,3.4377 4.5001,3.4377 -1.7189,5.5623 -1.7188,5.5623 h -5.5624 -5.5623 l -1.7189,-5.5623 -1.7188,-5.5623 4.5,-3.4377 z"
     style="fill:#ffffff;fill-opacity:1;fill-rule:evenodd;stroke:none;stroke-width:0.5;stroke-linecap:butt;stroke-linejoin:miter;stroke-miterlimit:4;stroke-dasharray:none;stroke-opacity:1"
     id="path63"
     inkscape:connector-curvature="0" />
  <g
     id="Layer1007"
     style="fill:#ffffff;fill-opacity:1;fill-rule:evenodd;stroke:none;stroke-width:0.5;stroke-miterlimit:4;stroke-dasharray:none;stroke-opacity:1">
    <path
       d="m 145.0117,70.1277 1.4527,0.7472 1.442,0.8496 v 0.5505 l -1.442,0.8498 -1.4527,0.7469 -0.025,0.6435 1.3899,0.8575 1.3725,0.9592 -0.042,0.5488 -1.5046,0.735 -1.506,0.6324 -0.0749,0.6398 1.3198,0.9629 1.2938,1.0619 -0.0848,0.5445 -1.5568,0.6166 -1.5502,0.513 -0.1245,0.6322 1.241,1.0621 1.2084,1.1594 -0.1275,0.5363 -1.5996,0.4935 -1.5857,0.3923 -0.1724,0.6202 1.1549,1.1549 1.1146,1.2495 -0.1687,0.5244 -1.6328,0.3691 -1.6112,0.2676 -0.2202,0.6051 1.0618,1.2408 1.014,1.3325 -0.2084,0.5094 -1.6568,0.2407 -1.6268,0.1426 -0.267,0.5865 0.9632,1.3192 0.9082,1.4068 -0.2475,0.4921 -1.6704,0.1117 -1.6333,0.0159 -0.3113,0.5641 0.8572,1.3904 0.7965,1.4723 -0.2843,0.4717 -1.6747,-0.0182 -1.629,-0.1108 -0.3541,0.5386 0.7469,1.4519 0.6798,1.5298 -0.3203,0.4488 -1.6674,-0.148 -1.6163,-0.237 -0.3943,0.5094 0.6321,1.5061 0.5588,1.5777 -0.3541,0.4224 -1.6506,-0.2767 -1.5931,-0.3617 -0.4325,0.4771 0.5136,1.5503 0.4348,1.6171 -0.3852,0.3929 -1.6254,-0.4034 -1.5599,-0.4838 -0.4688,0.4416 0.3923,1.5863 0.3089,1.6455 -0.4155,0.3623 -1.5885,-0.5287 -1.518,-0.6029 -0.5009,0.4042 0.2676,1.6109 0.18,1.6651 -0.4416,0.3285 -1.5429,-0.6497 -1.4661,-0.7191 -0.5318,0.3645 0.1426,1.6268 0.0507,1.6739 -0.4663,0.2933 -1.4882,-0.7673 -1.4062,-0.8303 -0.5579,0.3218 0.0159,1.6336 -0.0788,1.6724 -0.4876,0.2566 -1.4244,-0.8805 -1.3379,-0.9368 -0.5806,0.2775 -0.1108,1.6296 -0.2086,1.6614 -0.5063,0.2183 -1.3513,-0.9885 -1.2608,-1.038 -0.6007,0.2324 -0.237,1.6163 -0.3367,1.6393 -0.5213,0.1786 -1.2705,-1.0896 -1.1775,-1.1325 -0.6174,0.1843 -0.3606,1.593 -0.4629,1.609 -0.5332,0.1377 -1.1829,-1.1857 -1.0859,-1.22 -0.6293,0.1363 -0.4836,1.5599 -0.5859,1.5684 -0.5428,0.0961 -1.0868,-1.2736 -0.9879,-1.3005 -0.6381,0.087 -0.6029,1.518 -0.7059,1.5179 -0.5482,0.0542 -0.9856,-1.3539 -0.8841,-1.3731 -0.6429,0.0375 -0.7192,1.466 -0.8212,1.459 -0.5504,0.0111 -0.8776,-1.4264 -0.7748,-1.4377 -0.6443,-0.0122 -0.8302,1.4062 -0.9324,1.3913 -0.5496,-0.0321 -0.7642,-1.4896 -0.6616,-1.4938 -0.6412,-0.0624 -0.9369,1.338 -1.0363,1.3147 -0.546,-0.0749 -0.6465,-1.5443 -0.5437,-1.5397 -0.6347,-0.1117 -1.0372,1.2605 -1.1356,1.2308 -0.5383,-0.117 -0.5249,-1.59 -0.4224,-1.5772 -0.6239,-0.1613 -1.1324,1.1775 -1.228,1.1387 -0.5273,-0.1584 -0.4005,-1.6251 -0.2991,-1.6059 -0.6091,-0.2083 -1.22,1.0859 -1.3119,1.0395 -0.5145,-0.1981 -0.2724,-1.6521 -0.1738,-1.6239 -0.5919,-0.2557 -1.3005,0.9884 -1.389,0.9354 -0.4963,-0.2378 -0.144,-1.6679 -0.0482,-1.6327 -0.5692,-0.3002 -1.3731,0.8844 -1.4573,0.824 -0.4771,-0.2752 -0.0141,-1.6739 0.0785,-1.6313 -0.5443,-0.3436 -1.4377,0.775 -1.5165,0.7095 -0.4547,-0.3112 0.1156,-1.6705 0.2055,-1.6206 -0.5167,-0.3849 -1.4933,0.6616 -1.5667,0.5896 -0.4292,-0.3458 0.2447,-1.656 0.3299,-1.5999 -0.4853,-0.4238 -1.5398,0.5446 -1.6078,0.4657 -0.4005,-0.3779 0.3719,-1.6319 0.453,-1.5692 -0.4507,-0.4595 -1.5781,0.4221 -1.6387,0.3404 -0.3705,-0.4079 0.4972,-1.5982 0.5738,-1.5293 -0.4139,-0.4935 -1.6058,0.2994 -1.6606,0.212 -0.3376,-0.4357 0.6197,-1.5548 0.6908,-1.4805 -0.375,-0.5242 -1.6237,0.1741 -1.6728,0.0833 -0.3021,-0.4606 0.7387,-1.5024 0.8025,-1.4218 -0.3328,-0.5519 -1.6322,0.0479 -1.6739,-0.0474 -0.2664,-0.4821 0.8529,-1.4409 0.9111,-1.3558 -0.2894,-0.5754 -1.6314,-0.0794 -1.6648,-0.1763 -0.2282,-0.5009 0.9624,-1.3711 1.0125,-1.281 -0.2429,-0.5961 -1.6208,-0.2055 -1.6464,-0.3048 -0.1882,-0.5173 1.065,-1.2914 1.1094,-1.1994 -0.1967,-0.6134 -1.5996,-0.3302 -1.6177,-0.4312 -0.148,-0.5309 1.1628,-1.2053 1.1985,-1.1092 -0.1486,-0.627 -1.5689,-0.453 -1.5798,-0.5559 -0.1057,-0.54 1.2518,-1.1114 1.2809,-1.0131 -0.0994,-0.637 -1.5293,-0.5729 -1.5316,-0.6766 -0.0638,-0.5465 1.3343,-1.012 1.3561,-0.9105 -0.0505,-0.642 -1.4797,-0.6905 -1.4745,-0.7929 -0.0216,-0.5505 1.4086,-0.9045 1.4227,-0.8034 V 71.678 l -1.4227,-0.8031 -1.4086,-0.9045 0.0216,-0.5505 1.4745,-0.7928 1.4797,-0.6908 0.0505,-0.6421 -1.3561,-0.9105 -1.3343,-1.0117 0.0638,-0.5468 1.5316,-0.6763 1.5293,-0.5732 0.0994,-0.6366 -1.2809,-1.0134 -1.2518,-1.1115 0.1057,-0.54 1.5798,-0.5556 1.5689,-0.453 0.1486,-0.627 -1.1985,-1.1092 -1.1628,-1.2053 0.148,-0.5312 1.6177,-0.4311 1.5996,-0.33 0.1967,-0.6134 -1.1094,-1.1993 -1.065,-1.2915 0.1882,-0.5176 1.6464,-0.3045 1.6208,-0.2055 0.2429,-0.5961 -1.0125,-1.281 -0.9624,-1.3711 0.2282,-0.5009 1.6648,-0.1763 1.6314,-0.0796 0.2894,-0.5752 -0.9111,-1.3561 -0.8529,-1.4406 0.2664,-0.4824 1.6739,-0.0471 1.6322,0.0479 0.3328,-0.5519 -0.8025,-1.4221 -0.7387,-1.5021 0.3021,-0.4606 1.6728,0.0833 1.6237,0.1741 0.375,-0.5244 -0.6908,-1.4806 -0.6197,-1.5548 0.3376,-0.4357 1.6606,0.2124 1.6058,0.2993 0.4139,-0.4935 -0.5738,-1.5293 -0.4972,-1.5982 0.3705,-0.4082 1.6387,0.3405 1.5781,0.4223 0.4507,-0.4597 -0.453,-1.569 -0.3719,-1.6319 0.4005,-0.3782 1.6078,0.4658 1.5398,0.5445 0.4853,-0.4238 -0.3299,-1.5996 -0.2447,-1.656 0.4292,-0.3458 1.5667,0.5896 1.4933,0.6613 0.5167,-0.3846 -0.2055,-1.6209 -0.1156,-1.6702 0.4547,-0.3112 1.5165,0.7095 1.4377,0.7747 0.5443,-0.3435 -0.0785,-1.6311 0.0141,-1.6741 0.4771,-0.2753 1.4573,0.8243 1.3731,0.8842 0.5692,-0.2999 0.0482,-1.6328 0.144,-1.6679 0.4963,-0.2378 1.389,0.9351 1.3005,0.9887 0.5919,-0.2559 0.1738,-1.6237 0.2724,-1.6523 0.5145,-0.1979 1.3119,1.0395 1.22,1.0859 0.6091,-0.2083 0.2991,-1.6058 0.4005,-1.6254 0.5273,-0.1582 1.228,1.1384 1.1324,1.1775 0.6239,-0.1613 0.4224,-1.5772 0.5249,-1.5899 0.5383,-0.1171 1.1356,1.2308 1.0372,1.2608 0.6347,-0.1116 0.5437,-1.5398 0.6465,-1.5443 0.546,-0.0752 1.0363,1.315 0.9369,1.338 0.6412,-0.0624 0.6616,-1.4938 0.7642,-1.4896 0.5496,-0.0323 0.9324,1.3912 0.8302,1.4063 0.6443,-0.0119 0.7748,-1.4378 0.8776,-1.4267 0.5504,0.0114 0.8212,1.4587 0.7192,1.4664 0.6429,0.0374 0.8841,-1.3731 0.9856,-1.3539 0.5482,0.0539 0.7059,1.5182 0.6029,1.518 0.6381,0.087 0.9879,-1.3005 1.0868,-1.2736 0.5428,0.0961 0.5859,1.5681 0.4836,1.5602 0.6293,0.1363 1.0859,-1.2203 1.1829,-1.1857 0.5332,0.138 0.4629,1.6087 0.3606,1.5931 0.6174,0.1845 1.1775,-1.1324 1.2705,-1.09 0.5213,0.1786 0.3367,1.6396 0.237,1.6163 0.6007,0.2324 1.2608,-1.038 1.3513,-0.9885 0.5063,0.2183 0.2086,1.6611 0.1108,1.6299 0.5806,0.2775 1.3379,-0.9368 1.4244,-0.8804 0.4876,0.2565 0.0788,1.6724 -0.0159,1.6336 0.5579,0.3218 1.4062,-0.8303 1.4882,-0.7673 0.4663,0.2931 -0.0507,1.6741 -0.1426,1.6268 0.5318,0.3645 1.4661,-0.7194 1.5429,-0.6494 0.4416,0.3285 -0.18,1.6651 -0.2676,1.6109 0.5009,0.4043 1.518,-0.603 1.5885,-0.5289 0.4155,0.3622 -0.3089,1.6456 -0.3923,1.5862 0.4688,0.4419 1.5599,-0.4838 1.6254,-0.4034 0.3852,0.3929 -0.4348,1.6169 -0.5136,1.5502 0.4325,0.4771 1.5931,-0.3614 1.6506,-0.2767 0.3541,0.4221 -0.5588,1.5781 -0.6321,1.506 0.3943,0.5091 1.6163,-0.237 1.6674,-0.1477 0.3203,0.4485 -0.6798,1.5301 -0.7469,1.4519 0.3541,0.5386 1.629,-0.1111 1.6747,-0.0179 0.2843,0.4717 -0.7965,1.4723 -0.8572,1.3904 0.3113,0.5641 1.6333,0.0156 1.6704,0.112 0.2475,0.4918 -0.9082,1.4071 -0.9632,1.3193 0.267,0.5864 1.6268,0.1426 1.6568,0.2407 0.2084,0.5091 -1.014,1.3328 -1.0618,1.2405 0.2202,0.6052 1.6112,0.2679 1.6328,0.369 0.1687,0.5242 -1.1146,1.2495 -1.1549,1.1551 0.1724,0.6202 1.5857,0.3923 1.5996,0.4935 0.1275,0.5361 -1.2084,1.1596 -1.241,1.0619 0.1245,0.6324 1.5502,0.5128 1.5568,0.6165 0.0848,0.5445 -1.2938,1.0622 -1.3198,0.9629 0.0749,0.6398 1.506,0.6321 1.5046,0.735 0.042,0.5491 -1.3725,0.9593 -1.3899,0.8572 z"
       style="fill:#ffffff;fill-opacity:1;fill-rule:evenodd;stroke:none;stroke-width:0.5;stroke-linecap:butt;stroke-linejoin:miter;stroke-miterlimit:4;stroke-dasharray:none;stroke-opacity:1"
       id="path601"
       inkscape:connector-curvature="0" />
  </g>
  <g
     id="Layer1009"
     style="fill:#ffffff;fill-opacity:1;fill-rule:evenodd;stroke:none;stroke-width:0.5;stroke-miterlimit:4;stroke-dasharray:none;stroke-opacity:1">
    <path
       d="m 192.2539,101.7726 1.48,0.5887 1.4624,0.8887 v 0.4708 l -1.4624,0.889 -1.48,0.5887 -0.0839,0.7433 1.3119,0.9028 1.2285,1.192 -0.1052,0.4595 -1.6237,0.5408 -1.5735,0.2446 -0.2469,0.7056 1.0778,1.1724 0.9323,1.4355 -0.2047,0.4243 -1.7033,0.1667 -1.5886,-0.1117 -0.3982,0.633 0.79,1.383 0.5893,1.6064 -0.2939,0.3682 -1.6974,-0.2168 -1.5239,-0.4627 -0.5287,0.5287 0.4626,1.5242 0.2169,1.6971 -0.3682,0.294 -1.6067,-0.5894 -1.3828,-0.7897 -0.6332,0.3983 0.1119,1.5882 -0.1666,1.7034 -0.4244,0.2046 -1.4354,-0.932 -1.1725,-1.0777 -0.7058,0.2466 -0.2443,1.5735 -0.5409,1.6237 -0.4598,0.1051 -1.1916,-1.2285 -0.9029,-1.3119 -0.7432,0.0842 -0.5888,1.4797 -0.8889,1.4624 h -0.4709 l -0.8889,-1.4624 -0.5888,-1.4797 -0.7432,-0.0842 -0.9028,1.3119 -1.1917,1.2285 -0.4598,-0.1051 -0.5408,-1.6237 -0.2447,-1.5735 -0.7055,-0.2466 -1.1724,1.0777 -1.4355,0.932 -0.4243,-0.2046 -0.1667,-1.7034 0.1117,-1.5882 -0.633,-0.3983 -1.383,0.7897 -1.6064,0.5894 -0.3682,-0.294 0.2168,-1.6971 0.4626,-1.5242 -0.5286,-0.5287 -1.5242,0.4627 -1.6971,0.2168 -0.294,-0.3682 0.5893,-1.6064 0.7898,-1.383 -0.398,-0.633 -1.5886,0.1117 -1.7033,-0.1667 -0.2047,-0.4243 0.9321,-1.4355 1.078,-1.1724 -0.2469,-0.7056 -1.5735,-0.2446 -1.6237,-0.5408 -0.1052,-0.4595 1.2286,-1.192 1.3118,-0.9028 -0.0839,-0.7433 -1.4799,-0.5887 -1.4624,-0.889 V 103.25 l 1.4624,-0.8887 1.4799,-0.5887 0.0839,-0.7433 -1.3118,-0.9031 -1.2286,-1.1917 0.1052,-0.4598 1.6237,-0.5408 1.5735,-0.2444 0.2469,-0.7058 -1.078,-1.1724 -0.9321,-1.4355 0.2047,-0.4243 1.7033,-0.1667 1.5886,0.112 0.398,-0.633 -0.7898,-1.383 -0.5893,-1.6067 0.294,-0.3682 1.6971,0.2168 1.5242,0.4627 0.5286,-0.5287 -0.4626,-1.5239 -0.2168,-1.6974 0.3682,-0.294 1.6064,0.5897 1.383,0.7897 0.633,-0.3983 -0.1117,-1.5885 0.1667,-1.7034 0.4243,-0.2046 1.4355,0.9323 1.1724,1.0777 0.7055,-0.2469 0.2447,-1.5735 0.5408,-1.6237 0.4598,-0.1048 1.1917,1.2282 0.9028,1.3119 0.7432,-0.0839 0.5888,-1.48 0.8889,-1.4624 h 0.4709 l 0.8889,1.4624 0.5888,1.48 0.7432,0.0839 0.9029,-1.3119 1.1916,-1.2282 0.4598,0.1048 0.5409,1.6237 0.2443,1.5735 0.7058,0.2469 1.1725,-1.0777 1.4354,-0.9323 0.4244,0.2046 0.1666,1.7034 -0.1119,1.5885 0.6332,0.3983 1.3828,-0.7897 1.6067,-0.5897 0.3682,0.294 -0.2169,1.6974 -0.4626,1.5239 0.5287,0.5287 1.5239,-0.4627 1.6974,-0.2168 0.2939,0.3682 -0.5893,1.6067 -0.79,1.383 0.3982,0.633 1.5886,-0.112 1.7033,0.1667 0.2047,0.4243 -0.9323,1.4355 -1.0778,1.1724 0.2469,0.7058 1.5735,0.2444 1.6237,0.5408 0.1052,0.4598 -1.2285,1.1917 -1.3119,0.9031 z"
       style="fill:#ffffff;fill-opacity:1;fill-rule:evenodd;stroke:none;stroke-width:0.5;stroke-linecap:butt;stroke-linejoin:miter;stroke-miterlimit:4;stroke-dasharray:none;stroke-opacity:1"
       id="path657"
       inkscape:connector-curvature="0" />
  </g>
</svg>
