<?xml version="1.0" encoding="UTF-8" standalone="no"?>
<!-- Created with Inkscape (http://www.inkscape.org/) -->

<svg
   xmlns:dc="http://purl.org/dc/elements/1.1/"
   xmlns:cc="http://creativecommons.org/ns#"
   xmlns:rdf="http://www.w3.org/1999/02/22-rdf-syntax-ns#"
   xmlns:svg="http://www.w3.org/2000/svg"
   xmlns="http://www.w3.org/2000/svg"
   xmlns:sodipodi="http://sodipodi.sourceforge.net/DTD/sodipodi-0.dtd"
   xmlns:inkscape="http://www.inkscape.org/namespaces/inkscape"
   width="210mm"
   height="297mm"
   viewBox="0 0 744.09448819 1052.3622047"
   id="svg2"
   version="1.1"
   inkscape:version="0.91 r13725"
   sodipodi:docname="cuori.svg">
  <defs
     id="defs4" />
  <sodipodi:namedview
     id="base"
     pagecolor="#ffffff"
     bordercolor="#666666"
     borderopacity="1.0"
     inkscape:pageopacity="0.0"
     inkscape:pageshadow="2"
     inkscape:zoom="0.98994949"
     inkscape:cx="293.59278"
     inkscape:cy="637.46317"
     inkscape:document-units="px"
     inkscape:current-layer="g4147"
     showgrid="false"
     inkscape:window-width="1366"
     inkscape:window-height="716"
     inkscape:window-x="0"
     inkscape:window-y="25"
     inkscape:window-maximized="1" />
  <metadata
     id="metadata7">
    <rdf:RDF>
      <cc:Work
         rdf:about="">
        <dc:format>image/svg+xml</dc:format>
        <dc:type
           rdf:resource="http://purl.org/dc/dcmitype/StillImage" />
        <dc:title />
      </cc:Work>
    </rdf:RDF>
  </metadata>
  <g
     inkscape:label="Livello 1"
     inkscape:groupmode="layer"
     id="layer1">
    <g
       id="g4147"
       transform="translate(105.71429,56.428571)">
      <path
         style="opacity:1;fill:#ff0000;fill-opacity:1;stroke:none;stroke-width:2;stroke-linejoin:miter;stroke-miterlimit:4;stroke-dasharray:none;stroke-opacity:1"
         d="M 161.27344 195.22852 C 145.33416 195.20092 133.49418 200.07427 121.20508 211.7207 C 79.723484 251.03296 77.871021 340.49846 116.81055 423.88867 C 128.17818 448.23281 146.12501 476.69732 164.97461 500.2793 C 177.35035 515.76209 212.36422 551.36159 227.48047 563.83008 C 247.92443 580.69308 274.06315 599.33625 291.20898 609.2832 L 298.0625 613.25977 L 298.57227 613.00195 L 298.57227 493.16406 C 275.69469 501.47588 252.76414 497.93436 242.49023 486.02734 C 239.16825 482.17732 237.83378 478.52296 237.97461 473.66016 C 238.06981 470.35631 238.71844 467.80163 240.27344 464.59766 C 245.17808 454.49203 255.14153 445.33413 271.61719 435.79102 C 275.54659 433.51501 276.02069 433.14728 275.71094 432.60156 C 275.60288 432.41116 273.6095 430.98869 271.28125 429.43945 C 254.17809 418.05881 244.07311 406.98091 240.92773 396.16211 C 240.39173 394.31847 240.31261 393.36822 240.41406 389.97656 C 240.55418 385.29366 241.00016 383.89805 243.5332 380.19922 C 245.20455 377.75867 246.91529 376.14388 249.72656 374.35352 C 253.2142 372.13244 259.56372 369.87446 264.10547 369.24023 C 267.24491 368.8018 276.07853 368.8659 279.96289 369.35547 C 286.15447 370.13582 292.39493 370.35087 298.57227 372.77344 L 298.57227 326.60742 C 297.07467 325.09805 295.1615 317.17258 288.53125 306.04688 C 255.69179 250.94138 224.74581 217.9317 191.17773 202.20117 C 180.535 197.21382 172.10274 195.24722 161.27344 195.22852 z M 158.55273 274.58789 L 210.77148 274.58789 C 213.83373 274.58789 216.41259 275.34863 218.50781 276.86914 C 220.60304 278.2376 221.65039 279.98652 221.65039 282.11523 C 221.65039 284.0919 220.56253 285.83887 218.38672 287.35938 C 216.2915 288.87988 213.75315 289.64062 210.77148 289.64062 L 195.54102 289.64062 L 195.54102 411.43359 L 210.77148 411.43359 C 213.83373 411.43359 216.41259 412.19433 218.50781 413.71484 C 220.60304 415.0833 221.65039 416.83222 221.65039 418.96094 C 221.65039 420.9376 220.56253 422.68652 218.38672 424.20703 C 216.2915 425.72754 213.75315 426.48633 210.77148 426.48633 L 158.55273 426.48633 C 155.4099 426.48633 152.79054 425.80205 150.69531 424.43359 C 148.68068 422.91308 147.67383 421.08965 147.67383 418.96094 C 147.67383 416.98427 148.72118 415.23535 150.81641 413.71484 C 152.99221 412.19433 155.57107 411.43359 158.55273 411.43359 L 173.7832 411.43359 L 173.7832 289.64062 L 158.55273 289.64062 C 155.4099 289.64062 152.79054 288.95635 150.69531 287.58789 C 148.68068 286.06738 147.67383 284.24395 147.67383 282.11523 C 147.67383 280.13857 148.72118 278.38965 150.81641 276.86914 C 152.99221 275.34863 155.57107 274.58789 158.55273 274.58789 z "
         id="path4165"
         transform="translate(-105.71429,-56.428571)" />
      <path
         style="opacity:1;fill:#ff0000;fill-opacity:1;stroke:none;stroke-width:2;stroke-linejoin:miter;stroke-miterlimit:4;stroke-dasharray:none;stroke-opacity:1"
         d="m 384.79449,140.34331 c -10.65706,0.0187 -18.95621,1.98512 -29.42968,6.97266 -33.03421,15.73113 -63.48751,48.74198 -95.80469,103.8496 -6.52481,11.12615 -8.40708,19.05112 -9.88086,20.56055 l 0,50.32813 c -5.31494,-1.81578 -10.66763,-3.07107 -15.98242,-3.70899 -3.8219,-0.45873 -12.51262,-0.51822 -15.60157,-0.10742 -4.46872,0.59429 -10.71685,2.70983 -14.14843,4.79102 -2.76606,1.67759 -4.44929,3.18972 -6.09375,5.47656 -2.49233,3.46588 -2.9305,4.77608 -3.06836,9.16406 -0.0998,3.17805 -0.0215,4.06739 0.50586,5.79492 3.0948,10.13744 13.03514,20.51774 29.86328,31.18164 2.29081,1.45167 4.25305,2.78448 4.35937,2.96289 0.30477,0.51135 -0.16111,0.85758 -4.02734,2.99024 -16.21072,8.94209 -26.01211,17.52105 -30.83789,26.99023 -1.52999,3.00219 -2.16997,5.39641 -2.26367,8.49219 -0.13858,4.55655 1.1748,7.98035 4.44336,11.58789 9.75995,10.7722 31.12933,12.9902 52.85156,6.12109 l 0,124.3418 0.50195,0.25781 6.74414,-3.97656 c 16.87314,-9.94734 42.59603,-28.59142 62.71485,-45.45508 14.87585,-12.46897 49.33284,-48.06934 61.51171,-63.55273 18.54983,-23.58289 36.2116,-52.04945 47.39844,-76.39453 38.32023,-83.39345 36.49766,-172.86199 -4.32422,-212.17578 -12.09365,-11.64688 -23.74586,-16.51979 -39.43164,-16.49219 z m -20.4082,77.58398 c 3.48039,0 6.41165,0.79187 8.79297,2.37305 2.38132,1.42306 3.57226,3.24143 3.57226,5.45508 l 0,118.58789 c 0,7.11531 -2.83904,13.67706 -8.51757,19.68555 -7.87669,7.90589 -19.05037,11.85937 -33.52149,11.85937 -14.83747,0 -26.01116,-3.87331 -33.52148,-11.62109 -5.67854,-6.00849 -8.51758,-12.65041 -8.51758,-19.92383 0,-2.05553 1.19093,-3.8739 3.57227,-5.45508 2.47291,-1.58118 5.40221,-2.37109 8.79101,-2.37109 3.48039,0 6.41165,0.78991 8.79297,2.37109 2.38132,1.42306 3.57227,3.24143 3.57226,5.45508 0.9159,5.05977 2.28931,8.61829 4.1211,10.67383 3.11404,3.47859 7.51091,5.21679 13.18945,5.21679 5.49536,0 9.66269,-1.4234 12.50195,-4.26953 2.83927,-2.84612 4.44224,-6.71943 4.8086,-11.62109 l 0,-118.58789 c 0,-2.05554 1.19094,-3.8739 3.57226,-5.45508 2.47292,-1.58118 5.40221,-2.37305 8.79102,-2.37305 z M 228.00012,326.52216 c 8.65992,-0.1719 14.55872,3.41902 20.43026,8.3644 17.58493,14.81114 21.80662,40.27893 47.39146,45.35909 -15.51917,14.44224 -16.88348,20.65054 -45.7182,41.13505 -20.93639,9.94467 -37.42588,9.66104 -41.82394,-5.60547 -5.14109,-17.84565 27.50894,-32.28729 39.39649,-36.89648 -8.84323,-8.0061 -44.93859,-24.72146 -37.34961,-42.09599 3.2704,-7.48741 7.85897,-10.06578 17.67354,-10.2606 z"
         id="path4165-3-6"
         inkscape:connector-curvature="0"
         sodipodi:nodetypes="sssccssssssscsscsccccsssssscsscscscscccsscscsssccscss" />
      <g
         transform="matrix(3.0219557,0,0,5.7019113,-77.670553,-1992.6142)"
         style="font-style:normal;font-weight:normal;font-size:40px;line-height:125%;font-family:sans-serif;letter-spacing:0px;word-spacing:0px;fill:#ffffff;fill-opacity:1;stroke:none;stroke-width:1px;stroke-linecap:butt;stroke-linejoin:miter;stroke-opacity:1"
         id="flowRoot4234" />
      <g
         transform="matrix(3.4345997,0,0,5.9294231,103.1701,-2082.0676)"
         style="font-style:normal;font-weight:normal;font-size:40px;line-height:125%;font-family:sans-serif;letter-spacing:0px;word-spacing:0px;fill:#ffffff;fill-opacity:1;stroke:none;stroke-width:1px;stroke-linecap:butt;stroke-linejoin:miter;stroke-opacity:1"
         id="flowRoot4234-4" />
    </g>
  </g>
</svg>
